<?xml version="1.0" standalone="no"?>
<!DOCTYPE svg PUBLIC "-//W3C//DTD SVG 20010904//EN"
 "http://www.w3.org/TR/2001/REC-SVG-20010904/DTD/svg10.dtd">
<svg version="1.0" xmlns="http://www.w3.org/2000/svg"
 width="395.000000pt" height="127.000000pt" viewBox="0 0 395.000000 127.000000"
 preserveAspectRatio="xMidYMid meet">

<g transform="translate(0.000000,127.000000) scale(0.100000,-0.100000)"
fill="#000000" stroke="none">
<path d="M0 635 l0 -635 1975 0 1975 0 0 635 0 635 -1975 0 -1975 0 0 -635z
m140 543 c0 -20 -14 -38 -31 -38 -20 0 -26 -15 -9 -25 6 -3 10 0 10 7 0 8 5 7
16 -4 19 -19 11 -38 -17 -38 -11 0 -17 -4 -14 -10 3 -6 -4 -10 -17 -9 -13 0
-17 3 -10 6 10 4 10 8 1 19 -8 10 -8 18 0 27 7 9 8 24 2 44 -8 26 -6 32 13 40
20 10 56 -2 56 -19z m140 22 c0 -4 14 -5 30 -2 17 2 37 -1 45 -8 9 -7 15 -8
15 -2 0 5 9 12 20 15 16 4 20 0 20 -19 0 -20 -5 -24 -30 -24 -22 0 -30 5 -31
18 0 14 -2 14 -9 -3 -4 -11 -4 -24 1 -29 5 -6 8 -19 8 -30 -1 -17 -2 -18 -6
-4 -4 16 -6 16 -20 2 -9 -8 -22 -13 -29 -10 -8 3 -14 1 -14 -4 0 -6 25 -10 56
-10 41 0 53 3 48 13 -6 10 -4 10 7 0 7 -7 21 -13 31 -13 10 0 18 -6 18 -12 0
-9 4 -8 10 2 8 12 10 10 10 -11 0 -34 -7 -40 -35 -27 -15 7 -22 16 -18 27 3
12 2 11 -7 -2 -11 -18 -12 -18 -26 0 -11 15 -13 15 -14 3 0 -9 -9 -16 -21 -17
-17 -2 -18 1 -9 13 8 8 8 14 2 14 -5 0 -12 -7 -16 -15 -8 -21 -26 -19 -27 3
-1 16 -2 16 -6 0 -4 -15 -15 -18 -59 -17 -61 2 -70 8 -49 35 8 10 14 26 14 34
0 10 -2 11 -6 3 -11 -28 -23 -11 -23 31 l0 45 43 3 c64 5 77 4 77 -2z m2481
-47 c1 -17 2 -17 6 0 8 32 18 17 18 -28 0 -25 -3 -45 -7 -45 -5 0 -8 6 -9 13
0 10 -2 10 -6 0 -11 -28 -23 -11 -23 32 0 42 19 66 21 28z m79 8 c0 -5 -6 -12
-12 -14 -10 -4 -9 -8 2 -16 13 -10 13 -12 0 -21 -13 -9 -13 -11 0 -20 12 -8
11 -10 -7 -10 -21 0 -23 5 -23 45 0 38 3 45 20 45 11 0 20 -4 20 -9z m31 -19
c0 -12 3 -9 10 7 15 39 21 17 8 -29 l-13 -43 -12 34 c-16 43 -17 62 -4 54 6
-3 10 -14 11 -23z m111 -4 l1 -33 4 33 c6 43 23 41 23 -2 0 -19 5 -38 10 -41
6 -4 10 10 10 35 0 25 4 39 10 35 6 -3 10 -22 10 -41 0 -39 -21 -54 -51 -35
-12 7 -19 7 -19 1 0 -5 -11 -10 -25 -10 -23 0 -25 4 -25 45 0 41 2 45 25 45
21 0 25 -5 27 -32z m118 -7 c7 -51 30 -52 30 -1 0 37 2 41 23 38 18 -2 23 -10
25 -45 l3 -43 -60 0 -61 0 0 44 c0 36 3 44 18 42 11 -1 19 -12 22 -35z m110
-6 c0 -25 -4 -45 -10 -45 -5 0 -10 20 -10 45 0 25 5 45 10 45 6 0 10 -20 10
-45z m40 23 l9 -23 0 23 c2 43 21 22 21 -23 0 -48 -15 -59 -30 -22 l-9 22 0
-22 c-1 -40 -21 -25 -21 15 0 34 6 52 17 52 2 0 8 -10 13 -22z m90 12 c0 -5
-7 -10 -15 -10 -10 0 -15 -10 -14 -32 0 -30 1 -31 9 -10 12 29 20 28 20 -3 0
-20 -5 -25 -25 -25 -22 0 -25 4 -25 38 0 21 3 42 7 45 10 11 43 8 43 -3z m78
-37 c3 -40 1 -43 -22 -43 -24 0 -26 3 -26 46 0 41 2 45 23 42 18 -2 23 -10 25
-45z m32 7 c0 -54 27 -56 32 -2 2 29 7 37 23 37 16 0 21 -8 23 -42 l3 -43 -50
0 -51 0 0 45 c0 25 5 45 10 45 6 0 10 -18 10 -40z m160 21 c1 -14 2 -13 11 2
14 25 32 22 19 -3 -15 -28 -5 -56 20 -56 23 0 27 14 5 22 -20 8 -19 43 1 51 8
3 20 1 27 -6 8 -8 7 -11 -6 -11 -21 0 -22 -16 -2 -24 8 -3 15 -15 15 -26 0
-17 -6 -20 -40 -20 -31 0 -40 4 -41 18 -1 16 -2 16 -6 0 -3 -13 -15 -18 -39
-18 -33 0 -34 1 -34 38 0 46 4 51 41 50 19 -1 29 -6 29 -17z m-3463 -87 c-3
-3 -12 -4 -19 -1 -8 3 -5 6 6 6 11 1 17 -2 13 -5z m2685 -101 c8 -10 28 -40
43 -67 l29 -49 -25 -46 c-39 -75 -49 -81 -132 -81 l-73 0 -32 56 c-18 31 -32
63 -32 72 0 18 39 90 62 116 20 23 140 22 160 -1z m496 -46 c38 -66 38 -78 -8
-149 l-30 -48 -71 0 c-78 0 -82 2 -123 72 -28 47 -31 85 -7 80 7 -1 10 2 6 7
-6 10 17 62 39 87 8 10 33 13 85 11 l75 -2 34 -58z m434 46 c8 -10 27 -40 41
-66 l27 -49 -31 -56 c-17 -32 -35 -61 -39 -65 -6 -7 -74 -11 -141 -8 -17 1
-71 78 -83 116 -4 14 7 42 31 83 l37 62 71 0 c56 0 75 -4 87 -17z m-3513 -87
c14 -55 14 -66 1 -66 -5 0 -10 7 -10 15 0 8 -7 15 -15 15 -8 0 -15 -7 -15 -15
0 -8 -5 -15 -11 -15 -13 0 -5 70 12 102 14 26 25 16 38 -36z m169 45 c9 -5 12
-25 10 -57 -3 -45 -5 -49 -28 -49 -23 0 -25 4 -28 49 -3 44 6 66 28 66 3 0 11
-4 18 -9z m372 -57 c0 -30 -4 -54 -10 -54 -6 0 -10 27 -10 61 0 37 4 58 10 54
6 -3 10 -31 10 -61z m68 48 c2 -7 -2 -11 -10 -10 -9 2 -13 -9 -15 -37 0 -22 1
-30 4 -17 7 33 35 29 31 -5 -6 -56 -68 -36 -68 23 0 49 45 84 58 46z m112 -3
c0 -6 -4 -7 -10 -4 -6 4 -10 -13 -10 -44 0 -28 -4 -51 -10 -51 -5 0 -10 20
-10 45 0 25 -4 45 -10 45 -20 0 -9 19 13 22 26 5 37 1 37 -13z m108 -38 c-3
-34 -1 -41 14 -41 10 0 18 -4 18 -10 0 -5 -13 -10 -30 -10 -30 0 -30 1 -30 53
0 30 3 57 7 61 14 14 25 -14 21 -53z m98 9 c8 0 14 9 14 20 0 11 5 20 10 20 6
0 10 -25 10 -55 0 -30 -4 -55 -10 -55 -5 0 -10 11 -10 25 0 16 -6 25 -15 25
-9 0 -15 -9 -15 -25 0 -14 -4 -25 -10 -25 -5 0 -10 24 -10 53 0 57 13 87 18
43 2 -14 10 -26 18 -26z m171 -11 c13 -59 10 -72 -11 -43 -15 19 -15 19 -31
-1 -15 -19 -16 -17 -10 34 3 30 9 59 12 63 12 20 29 -2 40 -53z m43 5 c0 -32
4 -44 15 -44 8 0 15 -4 15 -10 0 -5 -11 -10 -25 -10 -24 0 -25 3 -25 61 0 37
4 58 10 54 6 -3 10 -26 10 -51z m90 39 c0 -8 -4 -11 -10 -8 -6 4 -10 -13 -10
-44 0 -28 -4 -51 -10 -51 -5 0 -10 20 -10 45 0 25 -4 45 -10 45 -5 0 -10 6
-10 13 0 6 13 12 30 13 20 1 30 -4 30 -13z m41 -33 c5 0 9 9 9 20 0 11 7 20
16 20 12 0 14 -10 12 -52 -3 -53 -28 -83 -28 -34 0 14 -4 26 -10 26 -5 0 -10
-11 -10 -25 0 -14 -4 -25 -10 -25 -5 0 -10 24 -10 53 0 57 13 87 18 43 2 -14
8 -26 13 -26z m199 -10 c0 -33 -4 -60 -10 -60 -11 0 -14 103 -3 113 12 12 13
8 13 -53z m68 40 c3 -9 -1 -11 -11 -7 -29 11 -28 -11 0 -32 23 -16 26 -23 17
-38 -13 -22 -42 -29 -57 -14 -8 8 -5 11 11 11 27 0 29 21 2 38 -25 15 -26 38
-2 51 21 12 34 9 40 -9z m56 14 c9 -3 16 -11 16 -16 0 -6 -7 -8 -15 -5 -23 10
-28 -11 -5 -25 24 -15 27 -53 4 -62 -24 -9 -44 -7 -44 4 0 6 9 10 20 10 11 0
20 4 20 10 0 5 -9 15 -20 22 -23 14 -26 38 -8 56 14 14 12 14 32 6z m52 -56
c-2 -73 -26 -78 -26 -5 0 29 3 57 6 60 15 14 22 -6 20 -55z m62 53 c9 -5 12
-25 10 -57 -3 -45 -5 -49 -28 -49 -23 0 -25 4 -28 49 -3 44 6 66 28 66 3 0 11
-4 18 -9z m-1811 -28 l11 -28 1 28 c2 52 21 27 21 -28 0 -62 -13 -71 -34 -22
l-14 32 -1 -32 c-2 -57 -21 -36 -21 22 0 61 18 75 37 28z m173 17 c0 -5 -4
-10 -10 -10 -5 0 -10 -20 -10 -45 0 -25 -4 -45 -10 -45 -5 0 -10 20 -10 45 0
25 -4 45 -10 45 -5 0 -10 5 -10 10 0 6 14 10 30 10 17 0 30 -4 30 -10z m30
-45 c0 -30 -4 -55 -10 -55 -5 0 -10 25 -10 55 0 30 5 55 10 55 6 0 10 -25 10
-55z m128 33 l11 -23 0 23 c1 12 6 22 11 22 6 0 10 -25 10 -55 0 -30 -4 -55
-8 -55 -5 0 -16 15 -25 33 -17 31 -17 31 -14 5 1 -15 -2 -28 -8 -30 -6 -2 -11
21 -13 50 -3 57 15 72 36 30z m95 15 c12 -20 19 -103 8 -103 -6 0 -11 7 -11
15 0 20 -17 19 -29 -2 -17 -31 -22 -8 -10 46 10 46 29 66 42 44z m47 -38 c0
-39 3 -45 21 -45 11 0 17 -4 14 -10 -3 -5 -17 -10 -31 -10 -23 0 -24 3 -24 55
0 30 5 55 10 55 6 0 10 -20 10 -45z m138 2 c4 -45 -11 -67 -44 -67 -22 0 -24
4 -24 56 l0 55 33 -3 c29 -3 32 -6 35 -41z m142 -12 c0 -30 -4 -55 -10 -55 -5
0 -10 25 -10 55 0 30 5 55 10 55 6 0 10 -25 10 -55z m134 18 c8 -54 7 -73 -4
-73 -5 0 -10 7 -10 15 0 20 -17 19 -29 -2 -17 -31 -22 -8 -9 46 14 64 42 71
52 14z m232 22 c-20 -15 -20 -15 0 -30 17 -13 17 -14 2 -15 -22 0 -24 -30 -3
-30 8 0 15 -5 15 -11 0 -6 -12 -9 -27 -7 -25 3 -27 7 -29 56 l-2 52 32 0 c29
-1 30 -1 12 -15z m369 -12 l7 -28 10 28 c17 49 38 33 38 -28 0 -30 -4 -55 -10
-55 -5 0 -10 15 -10 33 -1 26 -2 29 -11 15 -5 -10 -14 -18 -19 -18 -5 0 -11 8
-13 18 -3 9 -5 2 -6 -15 -2 -56 -21 -36 -21 22 0 40 4 55 14 55 8 0 17 -12 21
-27z m385 5 l9 -23 0 23 c1 12 7 22 14 22 8 0 11 -16 9 -55 -4 -60 -15 -70
-30 -27 l-10 27 -1 -27 c-2 -53 -21 -28 -21 27 0 57 14 72 30 33z m-1889 -165
c-5 -37 -6 -37 -9 -8 -2 16 -9 33 -15 37 -8 5 -4 8 8 8 18 0 20 -5 16 -37z
m59 2 c0 -28 -4 -35 -20 -35 -16 0 -20 7 -20 35 0 28 4 35 20 35 16 0 20 -7
20 -35z m58 24 c-10 -5 -18 -18 -18 -29 0 -10 8 -21 18 -23 13 -4 11 -5 -5 -6
-19 -1 -23 4 -23 27 0 33 7 42 29 42 14 -1 13 -2 -1 -11z m57 -27 c0 -17 -3
-32 -7 -32 -5 0 -8 6 -8 13 0 8 -4 7 -10 -3 -7 -11 -10 -5 -10 23 0 31 3 38
18 35 12 -2 17 -13 17 -36z m35 27 c-12 -9 -13 -12 -1 -16 11 -5 11 -7 0 -14
-12 -8 -11 -11 1 -19 13 -8 12 -10 -2 -10 -14 0 -18 8 -18 35 0 27 4 35 18 35
15 0 15 -2 2 -11z m47 -9 c-3 -11 -1 -18 4 -14 5 3 9 -3 9 -13 0 -12 -7 -19
-20 -19 -11 0 -20 5 -20 11 0 24 13 55 22 55 6 0 8 -9 5 -20z m89 9 c-15 -9
-16 -13 -5 -20 12 -7 11 -9 -1 -9 -11 -1 -10 -4 4 -15 19 -15 19 -15 -2 -15
-18 0 -22 6 -22 30 0 40 -18 38 -22 -2 l-3 -33 -6 38 -5 37 41 0 c34 -1 37 -2
21 -11z m77 -29 c5 -21 3 -25 -17 -25 -23 0 -24 8 -10 54 6 18 20 4 27 -29z
m49 -7 c-10 -28 -10 -28 -11 12 -1 28 2 36 10 28 8 -8 8 -19 1 -40z m28 10 c0
-23 -4 -33 -9 -27 -9 8 -4 64 5 64 2 0 4 -17 4 -37z m44 21 c12 -31 6 -50 -15
-50 -15 0 -19 5 -15 21 3 11 6 26 6 33 0 17 17 15 24 -4z m46 1 c-7 -8 -10
-21 -7 -30 4 -8 2 -17 -2 -20 -5 -2 -11 11 -13 30 -3 29 -1 35 15 35 16 0 17
-3 7 -15z m29 -22 c0 -29 -2 -33 -8 -18 -7 18 -4 55 5 55 2 0 4 -17 3 -37z
m49 -1 c3 -27 0 -32 -17 -32 -17 0 -21 6 -21 36 0 28 3 35 18 32 11 -2 18 -14
20 -36z m31 26 c-1 -7 -5 -24 -9 -38 -7 -22 -8 -21 -9 13 -1 20 4 37 9 37 6 0
10 -6 9 -12z m31 -23 c0 -28 -15 -41 -23 -21 -8 19 3 57 14 50 5 -3 9 -16 9
-29z m40 16 c0 -11 3 -28 6 -38 5 -12 4 -15 -4 -8 -5 6 -12 19 -15 30 -4 15
-5 13 -6 -7 0 -16 -5 -28 -10 -28 -6 0 -6 12 0 32 5 18 9 34 9 35 0 2 5 3 10
3 6 0 10 -9 10 -19z m43 -43 c8 -5 6 -8 -5 -8 -14 0 -18 8 -17 38 2 34 2 34 6
7 3 -16 10 -33 16 -37z m75 24 c3 -27 0 -32 -17 -32 -17 0 -21 6 -21 36 0 28
3 35 18 32 11 -2 18 -14 20 -36z m19 -14 c-2 -13 -4 -5 -4 17 -1 22 1 32 4 23
2 -10 2 -28 0 -40z m41 42 c-10 -6 -14 -18 -11 -31 4 -16 8 -17 14 -7 7 10 9
9 9 -5 0 -12 -6 -17 -17 -15 -33 6 -29 68 4 68 16 -1 17 -1 1 -10z m73 -27
l-6 -38 -3 33 c-2 17 -7 32 -13 32 -9 0 -13 -21 -10 -47 1 -7 -3 -13 -9 -13
-11 0 -14 53 -3 63 3 4 16 7 28 7 19 0 20 -4 16 -37z m53 15 c9 -37 7 -44 -14
-44 -20 0 -26 20 -14 50 9 23 21 20 28 -6z m39 -40 c8 -5 6 -8 -5 -8 -14 0
-18 8 -17 38 2 34 2 34 6 7 3 -16 10 -33 16 -37z m57 51 c-12 -9 -13 -12 -1
-16 11 -5 11 -7 0 -14 -12 -8 -11 -11 1 -19 13 -8 12 -10 -2 -10 -14 0 -18 8
-18 35 0 27 4 35 18 35 15 0 15 -2 2 -11z m53 4 c-7 -2 -13 -15 -13 -28 0 -13
6 -26 13 -28 7 -3 6 -6 -5 -6 -23 -1 -31 15 -24 45 4 14 13 24 24 23 10 0 12
-3 5 -6z m55 -31 c3 -27 0 -32 -17 -32 -17 0 -21 6 -21 36 0 28 3 35 18 32 11
-2 18 -14 20 -36z m33 29 c-12 -8 -12 -12 2 -26 19 -19 14 -35 -11 -35 -15 0
-15 2 -2 11 11 8 12 12 3 16 -20 7 -16 43 5 43 14 0 14 -2 3 -9z m49 -6 c0 10
3 16 6 12 3 -3 3 -20 -1 -38 -8 -34 -16 -28 -29 21 -7 24 -6 24 8 6 15 -19 16
-19 16 -1z m40 5 c-13 -9 -13 -12 3 -21 25 -15 21 -39 -5 -38 -22 0 -22 1 -3
9 18 7 19 8 3 15 -10 4 -18 16 -18 26 0 11 7 19 18 19 15 0 15 -2 2 -10z m51
-27 c-5 -37 -6 -37 -9 -8 -2 16 -9 33 -15 37 -8 5 -4 8 8 8 18 0 20 -5 16 -37z
m39 26 c-12 -9 -13 -12 -1 -16 11 -5 11 -7 0 -14 -12 -8 -11 -11 1 -19 13 -8
12 -10 -2 -10 -14 0 -18 8 -18 35 0 27 4 35 18 35 15 0 15 -2 2 -11z m44 -6
c6 -14 8 -14 21 3 13 18 14 16 14 -21 0 -28 -3 -34 -8 -21 -7 17 -8 17 -23 2
-24 -23 -28 -20 -28 19 0 37 13 47 24 18z m105 0 c1 9 6 17 11 17 6 0 10 -8
11 -17 0 -15 2 -15 9 2 l9 20 0 -20 c0 -11 -4 -29 -8 -40 -8 -19 -8 -19 -19 0
-11 20 -11 20 -12 0 0 -17 -2 -17 -10 -5 -5 8 -9 26 -9 40 0 23 1 23 9 5 7
-17 9 -17 9 -2z m71 -13 c5 0 11 8 13 18 3 9 5 -1 5 -23 0 -22 -2 -32 -5 -22
-2 9 -8 17 -13 17 -5 0 -11 -8 -13 -17 -3 -10 -5 0 -5 22 0 22 2 32 5 23 2
-10 8 -18 13 -18z m45 -10 c2 -16 -1 -30 -6 -30 -5 0 -9 17 -9 37 0 42 12 37
15 -7z m38 33 c-7 -2 -13 -15 -13 -28 0 -13 6 -26 13 -28 7 -3 5 -6 -5 -6 -14
-1 -18 7 -18 34 0 27 4 35 18 34 10 0 12 -3 5 -6z m37 -23 c5 0 11 8 13 18 3
9 5 -1 5 -23 0 -29 -2 -34 -7 -20 -8 19 -8 19 -19 0 -10 -17 -11 -14 -11 20 1
22 3 32 6 23 2 -10 8 -18 13 -18z m67 -22 c-2 -13 -4 -5 -4 17 -1 22 1 32 4
23 2 -10 2 -28 0 -40z m33 42 c-13 -9 -13 -12 3 -21 25 -15 21 -39 -5 -38 -22
0 -22 1 -3 9 18 7 19 8 3 15 -10 4 -18 16 -18 26 0 11 7 19 18 19 15 0 15 -2
2 -10z m680 -112 c0 -15 -8 -18 -50 -18 -44 0 -50 3 -50 20 0 19 6 21 50 19
41 -2 50 -6 50 -21z m60 1 c0 -20 -30 -21 -31 0 0 12 -3 11 -9 -4 -8 -19 -9
-19 -9 2 -1 18 4 22 24 21 15 -2 25 -9 25 -19z m50 1 c0 -13 -7 -20 -20 -20
-13 0 -20 7 -20 20 0 13 7 20 20 20 13 0 20 -7 20 -20z m328 -4 c-2 -11 -11
-22 -22 -24 -10 -2 -16 0 -12 6 3 5 -5 7 -19 4 -20 -3 -25 0 -25 16 0 18 6 21
41 20 35 0 40 -3 37 -22z m150 9 c14 -14 -19 -25 -74 -25 -57 0 -64 2 -64 19
0 18 6 19 67 15 37 -3 69 -7 71 -9z m222 0 c0 6 21 10 48 9 68 -1 72 -2 72
-20 0 -12 -13 -15 -70 -13 -64 2 -70 4 -70 23 0 17 2 18 10 6 5 -8 10 -10 10
-5z m146 6 c-3 -4 7 -6 22 -3 40 7 100 7 108 0 3 -4 1 -15 -5 -25 -10 -17 -10
-17 -11 2 0 15 -3 16 -9 7 -5 -9 -27 -12 -64 -11 -48 2 -57 5 -57 21 0 10 5
18 11 18 5 0 8 -4 5 -9z m-42 -54 c6 6 107 5 113 -1 2 -2 -1 -14 -6 -27 -9
-21 -10 -22 -11 -4 0 13 -3 16 -8 8 -4 -7 -16 -12 -27 -11 -11 1 -30 -2 -42
-6 -18 -6 -23 -4 -23 11 0 12 -3 14 -8 6 -11 -18 -52 -12 -52 7 0 24 9 30 35
20 13 -5 26 -6 29 -3z m-3314 -63 c22 -20 38 -40 35 -44 -3 -5 -1 -11 5 -15
14 -8 10 -84 -6 -116 -7 -14 -21 -32 -30 -40 -16 -12 -17 -12 -10 1 4 9 2 8
-7 -2 -8 -10 -17 -15 -20 -11 -4 3 -7 2 -7 -4 0 -5 -21 -11 -46 -12 -133 -5
-202 152 -106 241 34 32 46 36 104 37 42 1 53 -4 88 -35z m361 5 c28 -20 59
-75 59 -106 0 -10 -9 -37 -20 -61 -15 -34 -29 -47 -66 -63 -74 -33 -150 -1
-180 76 -19 51 -14 85 22 132 41 54 126 64 185 22z m342 17 c18 -7 43 -26 57
-41 21 -22 25 -37 25 -85 0 -51 -4 -63 -29 -89 -82 -85 -220 -42 -233 72 -7
62 17 110 70 136 49 25 67 26 110 7z m402 -12 c91 -60 76 -196 -27 -238 -45
-18 -49 -19 -92 -2 -60 23 -90 65 -90 126 0 110 118 174 209 114z m348 12 c45
-19 77 -57 84 -99 22 -136 -137 -217 -232 -117 -22 23 -29 41 -33 83 -4 47 -1
57 24 86 28 34 74 60 107 61 10 0 32 -6 50 -14z m408 -17 c15 -11 35 -39 45
-64 16 -43 16 -47 -1 -90 -62 -163 -306 -80 -256 87 12 38 57 81 96 91 32 8
87 -3 116 -24z m1113 -67 c46 -62 50 -84 26 -134 -36 -78 -51 -88 -130 -88
-76 0 -82 4 -128 96 l-21 40 39 61 c21 33 43 62 49 64 6 2 40 2 76 -1 59 -5
66 -8 89 -38z m-453 -23 c38 -68 38 -78 3 -131 -13 -21 -24 -42 -24 -47 0 -15
-28 -21 -91 -21 -67 0 -80 9 -124 84 l-27 46 38 65 38 65 76 0 76 0 35 -61z
m934 -4 l36 -65 -27 -47 c-46 -81 -50 -83 -123 -83 -36 0 -71 4 -77 8 -6 4
-26 33 -44 64 l-32 58 37 65 36 65 79 0 78 0 37 -65z m-1345 -290 l0 -95 -90
0 -90 0 0 95 0 95 90 0 90 0 0 -95z m-2166 50 c-4 -8 -1 -15 5 -15 6 0 11 6
11 13 0 7 11 14 25 15 19 1 25 -3 25 -19 0 -19 -5 -20 -80 -18 -64 3 -80 6
-81 19 0 13 -1 13 -7 0 -11 -24 -42 -24 -42 0 0 18 6 20 75 20 62 0 73 -2 69
-15z m331 5 c-4 -6 -11 -8 -16 -5 -5 4 -9 2 -9 -4 0 -11 58 -7 69 5 3 4 -2 4
-11 1 -10 -4 -18 -2 -18 3 0 6 18 10 40 10 31 0 40 -4 41 -17 1 -17 2 -17 6 0
6 24 29 22 29 -3 0 -20 -6 -21 -128 -19 -70 0 -128 2 -128 4 0 27 17 35 72 35
37 0 57 -4 53 -10z m328 -6 c-3 -8 0 -14 6 -14 6 0 11 8 12 18 0 14 2 14 9 -3
l9 -20 1 20 1 20 9 -20 c7 -17 9 -17 9 -2 1 19 31 24 31 5 0 -9 3 -8 10 2 11
18 23 8 14 -14 -5 -13 -21 -16 -90 -16 -76 0 -84 2 -84 19 0 15 7 19 34 19 26
0 33 -4 29 -14z m157 -3 c0 -14 -6 -19 -20 -18 -11 1 -20 2 -20 3 0 1 3 9 6
18 9 23 34 20 34 -3z m160 7 c0 17 151 15 162 -2 5 -8 8 -7 8 2 0 6 9 12 20
12 11 0 20 -7 20 -15 0 -8 5 -15 10 -15 5 0 9 5 8 11 -2 6 2 13 7 15 6 2 11
-5 11 -15 0 -19 -8 -20 -98 -20 -86 0 -98 2 -99 17 0 14 -2 14 -7 2 -8 -18
-72 -23 -72 -5 0 19 13 26 22 13 6 -10 8 -10 8 0z m439 -10 c-1 -21 -2 -21 -7
-3 l-5 20 -8 -20 c-7 -19 -8 -19 -8 3 -1 13 5 22 14 22 9 0 15 -9 14 -22z m31
7 c0 6 11 12 24 13 16 1 25 -5 29 -18 3 -11 1 -20 -4 -20 -5 0 -10 8 -10 18
-1 16 -2 16 -6 0 -7 -26 -53 -20 -53 7 0 16 2 17 10 5 5 -8 10 -10 10 -5z m90
-5 c0 -11 -4 -20 -10 -20 -5 0 -10 9 -10 20 0 11 5 20 10 20 6 0 10 -9 10 -20z
m265 10 c-3 -5 -1 -10 4 -10 6 0 11 5 11 10 0 6 15 10 33 10 26 0 33 -4 33
-20 0 -11 -4 -20 -8 -20 -4 0 -8 8 -8 18 -1 15 -2 15 -10 1 -14 -24 -65 -23
-67 2 -1 10 3 19 8 19 6 0 7 -4 4 -10z m823 -33 c3 -14 -6 -17 -57 -17 -42 0
-61 4 -61 13 0 8 -4 7 -10 -3 -8 -12 -10 -11 -10 5 0 24 39 32 53 12 6 -9 11
-8 19 4 14 21 62 10 66 -14z m306 12 c1 -2 11 3 21 11 14 11 19 12 22 3 3 -9
10 -10 22 -4 9 5 23 6 31 1 7 -4 19 -6 27 -3 8 3 13 -2 13 -16 0 -19 -5 -20
-125 -20 -111 0 -125 2 -126 17 0 14 -2 14 -9 -3 -8 -19 -9 -19 -9 2 -1 15 6
23 22 25 23 3 105 -6 111 -13z m443 -3 c-5 8 16 12 68 12 66 1 75 -2 75 -18 0
-16 -10 -18 -91 -19 -50 -1 -95 -4 -100 -7 -5 -3 -9 2 -9 10 0 9 -7 16 -16 16
-8 0 -12 -4 -9 -10 3 -5 1 -10 -4 -10 -6 0 -11 9 -11 21 0 15 5 19 18 15 9 -3
24 -1 32 4 10 6 21 4 34 -8 11 -9 17 -12 13 -6z m-897 -7 c0 -15 -9 -18 -55
-18 -44 1 -55 4 -56 18 -1 14 -2 14 -6 -1 -6 -24 -63 -20 -63 5 0 16 9 17 90
15 79 -1 90 -4 90 -19z m67 -42 c13 -14 -7 -36 -29 -31 -13 2 -47 5 -75 5 -42
1 -53 4 -53 18 0 13 12 16 75 15 42 -1 79 -4 82 -7z"/>
<path d="M183 1170 c2 -22 6 -25 45 -25 23 0 42 3 42 8 0 4 -18 7 -39 7 -29 0
-41 5 -45 18 -3 10 -4 6 -3 -8z"/>
<path d="M288 1153 c6 -2 18 -2 25 0 6 3 1 5 -13 5 -14 0 -19 -2 -12 -5z"/>
<path d="M253 1105 c0 -8 4 -15 9 -15 4 0 8 4 8 9 0 6 -4 12 -8 15 -5 3 -9 -1
-9 -9z"/>
<path d="M200 1098 c0 -4 9 -8 20 -8 11 0 20 4 20 8 0 4 -9 8 -20 8 -11 0 -20
-4 -20 -8z"/>
<path d="M2950 1139 c0 -5 5 -7 10 -4 6 3 10 8 10 11 0 2 -4 4 -10 4 -5 0 -10
-5 -10 -11z"/>
<path d="M2950 1099 c0 -5 5 -7 10 -4 6 3 10 8 10 11 0 2 -4 4 -10 4 -5 0 -10
-5 -10 -11z"/>
<path d="M3150 1119 c0 -17 4 -28 10 -24 6 3 10 17 10 31 0 13 -4 24 -10 24
-5 0 -10 -14 -10 -31z"/>
<path d="M3070 1130 c0 -5 5 -10 11 -10 5 0 7 5 4 10 -3 6 -8 10 -11 10 -2 0
-4 -4 -4 -10z"/>
<path d="M3070 1100 c0 -5 5 -10 11 -10 5 0 7 5 4 10 -3 6 -8 10 -11 10 -2 0
-4 -4 -4 -10z"/>
<path d="M3390 1139 c0 -5 5 -7 10 -4 6 3 10 8 10 11 0 2 -4 4 -10 4 -5 0 -10
-5 -10 -11z"/>
<path d="M3390 1099 c0 -5 5 -7 10 -4 6 3 10 8 10 11 0 2 -4 4 -10 4 -5 0 -10
-5 -10 -11z"/>
<path d="M3502 1120 c0 -19 2 -27 5 -17 2 9 2 25 0 35 -3 9 -5 1 -5 -18z"/>
<path d="M3560 1120 c0 -20 5 -30 15 -30 10 0 15 10 15 30 0 20 -5 30 -15 30
-10 0 -15 -10 -15 -30z"/>
<path d="M2701 921 c-4 -9 -8 -41 -7 -71 1 -49 3 -55 24 -58 12 -2 22 -7 22
-12 0 -5 -10 -11 -22 -13 -13 -3 2 -4 32 -3 l55 1 3 83 c2 45 -1 83 -5 83 -47
8 -95 3 -102 -10z m49 -2 c-12 -8 -9 -9 13 -5 20 5 27 3 27 -9 0 -8 -6 -15
-14 -15 -17 0 -29 -27 -16 -35 6 -4 10 -11 10 -18 0 -6 -7 -1 -16 11 -16 24
-34 29 -34 10 0 -6 3 -8 7 -5 3 4 13 -3 21 -15 15 -20 16 -20 29 -3 13 18 13
18 13 -1 0 -10 3 -29 6 -41 5 -17 2 -23 -10 -23 -19 0 -21 16 -3 23 6 3 -7 6
-29 6 l-42 1 -1 59 c0 49 3 60 17 64 30 8 37 7 22 -4z"/>
<path d="M2720 831 c0 -6 5 -13 10 -16 6 -3 10 1 10 9 0 9 -4 16 -10 16 -5 0
-10 -4 -10 -9z"/>
<path d="M3198 878 c-13 -33 24 -52 50 -26 15 15 16 32 2 23 -5 -3 -10 -1 -10
4 0 15 -37 14 -42 -1z m32 -13 c0 -8 -4 -15 -8 -15 -5 0 -9 7 -9 15 0 8 4 15
9 15 4 0 8 -7 8 -15z"/>
<path d="M3140 820 c0 -5 14 -10 30 -10 17 0 30 4 30 8 0 4 -13 9 -30 10 -16
1 -30 -2 -30 -8z"/>
<path d="M3627 923 c-2 -5 -1 -19 4 -33 l7 -25 1 27 c1 14 7 29 14 31 7 3 6 6
-5 6 -9 1 -19 -2 -21 -6z"/>
<path d="M3706 923 c6 -4 14 -15 17 -23 5 -11 6 -9 4 4 -1 11 -9 21 -17 23
-10 3 -11 2 -4 -4z"/>
<path d="M3720 819 c0 -19 -5 -21 -45 -17 -25 2 -46 -1 -49 -7 -2 -6 17 -9 50
-7 49 4 54 6 54 28 0 13 -2 24 -5 24 -3 0 -5 -9 -5 -21z"/>
<path d="M3658 823 c7 -3 16 -2 19 1 4 3 -2 6 -13 5 -11 0 -14 -3 -6 -6z"/>
<path d="M221 874 c0 -11 3 -14 6 -6 3 7 2 16 -1 19 -3 4 -6 -2 -5 -13z"/>
<path d="M390 871 c0 -23 5 -41 10 -41 6 0 10 15 10 34 0 19 -4 38 -10 41 -6
4 -10 -10 -10 -34z"/>
<path d="M1315 870 c-3 -5 -1 -10 4 -10 6 0 11 5 11 10 0 6 -2 10 -4 10 -3 0
-8 -4 -11 -10z"/>
<path d="M1930 870 c0 -22 5 -40 10 -40 6 0 10 18 10 40 0 22 -4 40 -10 40 -5
0 -10 -18 -10 -40z"/>
<path d="M551 874 c0 -11 3 -14 6 -6 3 7 2 16 -1 19 -3 4 -6 -2 -5 -13z"/>
<path d="M717 903 c-11 -10 -8 -73 3 -73 6 0 10 18 10 40 0 41 -2 45 -13 33z"/>
<path d="M1000 875 c0 -8 4 -15 10 -15 5 0 7 7 4 15 -4 8 -8 15 -10 15 -2 0
-4 -7 -4 -15z"/>
<path d="M160 735 c0 -14 5 -25 10 -25 6 0 10 11 10 25 0 14 -4 25 -10 25 -5
0 -10 -11 -10 -25z"/>
<path d="M281 744 c0 -11 3 -14 6 -6 3 7 2 16 -1 19 -3 4 -6 -2 -5 -13z"/>
<path d="M531 734 c0 -11 3 -14 6 -6 3 7 2 16 -1 19 -3 4 -6 -2 -5 -13z"/>
<path d="M770 735 c0 -14 5 -25 10 -25 6 0 10 11 10 25 0 14 -4 25 -10 25 -5
0 -10 -11 -10 -25z"/>
<path d="M990 735 c0 -14 5 -25 10 -25 6 0 10 11 10 25 0 14 -4 25 -10 25 -5
0 -10 -11 -10 -25z"/>
<path d="M1380 736 c0 -14 4 -26 8 -26 11 0 12 39 1 45 -5 4 -9 -5 -9 -19z"/>
<path d="M180 515 c-19 -22 -8 -25 13 -3 9 10 13 18 8 18 -5 0 -14 -7 -21 -15z"/>
<path d="M199 463 c-11 -29 2 -59 31 -68 22 -7 63 11 55 25 -3 4 -2 10 2 13 5
2 2 2 -4 1 -7 -2 -13 2 -13 8 0 6 -3 8 -6 5 -4 -4 -1 -13 5 -21 10 -11 9 -15
-6 -18 -28 -6 -52 3 -55 21 -6 24 3 52 13 45 5 -3 7 -10 4 -15 -3 -5 1 -6 10
-2 13 5 14 7 3 14 -11 7 -10 9 1 9 8 0 23 -8 33 -17 18 -16 18 -16 12 0 -7 19
-8 19 -47 22 -22 2 -31 -4 -38 -22z"/>
<path d="M155 469 c-10 -15 3 -25 16 -12 7 7 7 13 1 17 -6 3 -14 1 -17 -5z"/>
<path d="M316 431 c-4 -5 -2 -12 3 -15 5 -4 12 -2 15 3 4 5 2 12 -3 15 -5 4
-12 2 -15 -3z"/>
<path d="M310 391 c0 -6 -15 -18 -32 -26 -18 -8 -26 -14 -17 -15 22 0 66 36
57 46 -5 4 -8 2 -8 -5z"/>
<path d="M570 523 c0 -5 13 -8 29 -8 16 0 33 3 37 8 4 4 -9 7 -29 7 -20 0 -37
-3 -37 -7z"/>
<path d="M650 520 c0 -5 5 -10 10 -10 6 0 10 5 10 10 0 6 -4 10 -10 10 -5 0
-10 -4 -10 -10z"/>
<path d="M660 402 c0 -4 10 -9 22 -9 18 -2 20 0 8 7 -18 12 -30 13 -30 2z"/>
<path d="M597 367 c-3 -9 1 -18 9 -21 16 -6 18 2 5 22 -7 11 -9 11 -14 -1z"/>
<path d="M958 502 c28 -4 28 -17 0 -36 -22 -16 -22 -16 17 -16 26 0 46 -7 61
-21 l22 -21 12 22 c6 11 9 29 7 38 -3 12 -5 11 -6 -5 -1 -30 -19 -38 -40 -19
-10 9 -28 16 -42 16 l-24 1 25 20 c15 13 34 19 52 17 15 -3 25 -1 23 3 -3 4
-33 6 -67 6 -35 -1 -53 -3 -40 -5z"/>
<path d="M920 417 c0 -8 11 -24 25 -37 14 -13 25 -20 25 -16 0 5 8 2 17 -5 11
-10 14 -10 9 -1 -4 6 -3 12 3 12 5 0 11 -5 13 -11 2 -7 9 -5 17 5 12 14 12 16
0 11 -8 -3 -30 8 -49 25 -36 32 -60 39 -60 17z m51 -23 c21 -24 22 -26 3 -16
-25 13 -50 42 -37 42 5 0 20 -12 34 -26z"/>
<path d="M1037 399 c7 -7 15 -10 18 -7 3 3 -2 9 -12 12 -14 6 -15 5 -6 -5z"/>
<path d="M1383 516 c-13 -29 -14 -38 -3 -51 16 -19 34 -19 50 0 10 12 10 21 0
45 -18 44 -28 45 -47 6z m27 -31 c0 -22 -2 -24 -14 -13 -10 9 -11 17 -4 26 15
17 18 15 18 -13z"/>
<path d="M1429 443 c-13 -16 -12 -17 4 -4 16 13 21 21 13 21 -2 0 -10 -8 -17
-17z"/>
<path d="M1307 427 l-28 -22 25 -24 c20 -19 29 -22 38 -13 9 9 7 16 -7 32 -14
16 -15 22 -5 35 18 21 10 19 -23 -8z m30 -53 c-10 -10 -48 27 -41 38 4 6 16 1
27 -11 12 -11 18 -24 14 -27z"/>
<path d="M1434 418 l-19 -23 23 19 c21 18 27 26 19 26 -2 0 -12 -10 -23 -22z"/>
<path d="M1373 393 c9 -2 23 -2 30 0 6 3 -1 5 -18 5 -16 0 -22 -2 -12 -5z"/>
<path d="M1699 489 c-17 -17 -20 -30 -16 -60 4 -30 1 -39 -12 -42 -9 -3 -2 -4
14 -4 17 0 38 -3 48 -7 13 -6 17 -4 17 10 0 13 -3 15 -8 7 -13 -21 -49 11 -50
46 -1 54 50 75 95 39 17 -14 9 -69 -13 -85 -10 -7 -13 -13 -7 -13 18 0 43 36
43 63 0 28 -41 67 -71 67 -11 0 -29 -10 -40 -21z"/>
<path d="M1810 500 c-13 -8 -12 -10 3 -10 9 0 17 5 17 10 0 12 -1 12 -20 0z"/>
<path d="M1741 459 c0 -15 6 -32 14 -39 16 -13 21 0 6 16 -5 5 -11 18 -14 29
-4 16 -5 14 -6 -6z"/>
<path d="M1809 373 c-13 -16 -12 -17 4 -4 16 13 21 21 13 21 -2 0 -10 -8 -17
-17z"/>
<path d="M2070 435 c0 -8 -7 -15 -15 -15 -8 0 -15 -7 -15 -15 0 -8 7 -15 15
-15 8 0 15 -7 15 -15 0 -8 7 -15 15 -15 8 0 15 7 15 15 0 8 7 15 15 15 8 0 15
8 14 18 0 10 -3 12 -6 5 -2 -7 -11 -13 -18 -13 -7 0 -16 -8 -18 -17 -4 -17 -5
-17 -6 0 0 9 -8 17 -16 17 -12 0 -12 3 3 18 15 16 18 16 29 2 10 -13 11 -11 6
8 -6 25 -33 31 -33 7z"/>
<path d="M3154 467 c-3 -8 -4 -47 -2 -88 l3 -74 55 -2 c49 -2 52 -1 30 9 l-25
12 28 4 28 3 -3 72 -3 72 -53 3 c-38 2 -54 -1 -58 -11z m84 -3 c20 -6 22 -13
22 -65 l0 -59 -44 0 c-43 0 -44 0 -47 38 -2 20 -3 48 -1 60 3 20 8 23 30 18
20 -5 23 -4 12 4 -17 11 -6 13 28 4z m-38 -144 c0 -5 -9 -10 -20 -10 -11 0
-20 5 -20 10 0 6 9 10 20 10 11 0 20 -4 20 -10z"/>
<path d="M3190 420 c-13 -8 -12 -10 3 -10 9 0 17 5 17 10 0 12 -1 12 -20 0z"/>
<path d="M2690 390 l0 -90 60 0 61 0 -3 88 -3 87 -57 3 -58 3 0 -91z m76 60
c24 9 24 9 24 -50 l0 -60 -40 0 c-22 0 -40 5 -40 10 0 6 16 10 35 10 34 0 35
1 32 39 -1 24 -6 36 -12 32 -5 -5 -20 -11 -32 -14 -17 -4 -23 -1 -23 12 0 23
11 34 23 22 6 -6 19 -6 33 -1z m-3 -77 c-7 -2 -19 -2 -25 0 -7 3 -2 5 12 5 14
0 19 -2 13 -5z m-33 -53 c0 -5 -7 -10 -15 -10 -8 0 -15 5 -15 10 0 6 7 10 15
10 8 0 15 -4 15 -10z m70 0 c0 -5 -7 -10 -15 -10 -8 0 -15 5 -15 10 0 6 7 10
15 10 8 0 15 -4 15 -10z"/>
<path d="M3660 460 c8 -5 20 -10 25 -10 6 0 3 5 -5 10 -8 5 -19 10 -25 10 -5
0 -3 -5 5 -10z"/>
<path d="M3712 456 c7 -8 15 -12 17 -11 5 6 -10 25 -20 25 -5 0 -4 -6 3 -14z"/>
<path d="M3690 420 c0 -5 5 -10 11 -10 5 0 7 5 4 10 -3 6 -8 10 -11 10 -2 0
-4 -4 -4 -10z"/>
<path d="M2283 228 c0 -16 4 -28 9 -28 5 0 6 5 3 10 -3 6 -2 10 3 10 6 0 13 7
16 16 5 14 4 15 -8 5 -11 -9 -15 -9 -19 1 -2 7 -4 1 -4 -14z"/>
<path d="M2347 235 c-16 -12 -16 -13 8 -17 26 -5 30 -1 17 19 -5 8 -12 8 -25
-2z"/>
<path d="M2406 237 c3 -9 11 -17 18 -18 6 0 2 -4 -9 -9 -19 -8 -19 -9 3 -9 27
-1 28 10 2 34 -18 17 -20 17 -14 2z"/>
<path d="M2376 186 c6 -16 -28 -27 -46 -16 -9 6 -9 9 1 13 11 4 11 6 1 6 -7 1
-21 -6 -29 -15 -13 -12 -13 -15 -2 -14 31 5 41 0 35 -17 -6 -17 -5 -17 7 -1
10 13 17 14 25 6 7 -7 17 -13 24 -14 7 -1 21 -5 31 -9 10 -4 17 -3 17 4 0 6
-6 11 -14 11 -8 0 -20 14 -28 30 -13 29 -33 44 -22 16z m19 -25 c3 -5 2 -12
-3 -15 -5 -3 -9 1 -9 9 0 17 3 19 12 6z"/>
<path d="M2412 174 c10 -10 20 -16 22 -13 3 3 -5 11 -17 18 -21 13 -21 12 -5
-5z"/>
<path d="M2281 103 c0 -16 3 -22 6 -15 4 10 8 10 19 1 12 -10 13 -9 8 5 -3 9
-11 16 -18 17 -6 0 -2 4 9 9 19 8 19 9 -2 9 -19 1 -23 -4 -22 -26z"/>
<path d="M2373 117 c9 -8 17 -19 17 -26 0 -16 37 -13 44 4 3 9 0 15 -10 15 -8
0 -12 -4 -9 -10 3 -5 1 -10 -4 -10 -6 0 -11 4 -11 10 0 5 -10 14 -22 20 -21
10 -21 10 -5 -3z"/>
<path d="M2335 99 c-4 -6 -4 -13 -1 -16 3 -4 6 0 6 8 0 12 2 12 9 0 5 -7 15
-11 22 -9 10 3 7 8 -8 16 -15 9 -24 9 -28 1z"/>
<path d="M240 210 c0 -5 5 -10 10 -10 6 0 10 5 10 10 0 6 -4 10 -10 10 -5 0
-10 -4 -10 -10z"/>
<path d="M535 210 c-3 -5 -1 -10 4 -10 6 0 11 5 11 10 0 6 -2 10 -4 10 -3 0
-8 -4 -11 -10z"/>
<path d="M560 210 c0 -5 5 -10 10 -10 6 0 10 5 10 10 0 6 -4 10 -10 10 -5 0
-10 -4 -10 -10z"/>
</g>
</svg>
