<?xml version="1.0" standalone="no"?>
<!DOCTYPE svg PUBLIC "-//W3C//DTD SVG 20010904//EN"
 "http://www.w3.org/TR/2001/REC-SVG-20010904/DTD/svg10.dtd">
<svg version="1.0" xmlns="http://www.w3.org/2000/svg"
 width="395.000000pt" height="127.000000pt" viewBox="0 0 395.000000 127.000000"
 preserveAspectRatio="xMidYMid meet">

<g transform="translate(0.000000,127.000000) scale(0.100000,-0.100000)"
fill="#000000" stroke="none">
<path d="M0 641 c0 -554 0 -561 20 -561 17 0 20 7 20 50 l0 50 408 0 c224 0
595 0 825 0 403 0 418 1 437 20 24 24 25 43 4 64 -16 16 -157 18 -1366 16
l-308 -1 -2 458 c-3 427 -4 458 -20 461 -17 3 -18 -29 -18 -557z m541 -391
c12 0 17 -7 16 -21 -1 -19 -2 -19 -14 -3 -12 16 -13 16 -13 1 0 -9 -5 -17 -11
-17 -5 0 -7 6 -3 13 5 8 2 8 -9 -2 -15 -12 -17 -11 -17 11 0 30 10 42 24 28 5
-5 18 -10 27 -10z m1147 -13 c-2 -19 -7 -22 -30 -19 -32 5 -39 32 -8 32 11 0
20 5 20 11 0 5 4 7 10 4 5 -3 9 -16 8 -28z m-1265 -8 c-4 -16 -8 -17 -14 -7
-5 7 -9 8 -9 2 0 -17 -45 -9 -48 9 -2 11 6 17 30 19 43 5 47 2 41 -23z m47 0
c-12 -21 -30 -17 -30 6 0 14 20 25 33 18 4 -2 2 -13 -3 -24z m230 12 c0 -10
-7 -22 -15 -25 -20 -7 -32 23 -14 35 21 13 29 11 29 -10z m83 -11 c-19 -19
-38 -17 -27 3 5 8 3 8 -7 0 -17 -17 -29 -16 -29 1 0 9 12 16 33 18 44 5 52 -1
30 -22z m167 6 c0 -19 -6 -21 -51 -20 -31 1 -55 7 -60 15 -7 11 -9 9 -9 -6 0
-17 -2 -17 -10 -5 -16 24 -12 29 28 32 88 7 102 5 102 -16z m247 -6 c1 -15 -4
-18 -25 -15 -15 2 -30 4 -34 4 -13 1 -4 26 12 32 23 9 46 -1 47 -21z m423 3
c0 -11 -4 -12 -22 -2 -20 11 -21 10 -11 -3 13 -15 4 -16 -49 -9 -18 2 -6 30
15 33 36 5 67 -3 67 -19z m-1370 9 c0 -20 -23 -30 -52 -22 -16 5 -36 6 -44 3
-8 -3 -14 1 -14 11 0 13 11 16 55 16 30 0 55 -4 55 -8z m80 -14 c-1 -22 -2
-22 -14 -5 -12 15 -14 15 -19 2 -7 -18 -37 -9 -37 11 0 9 12 14 35 14 30 0 35
-3 35 -22z m320 4 c0 -13 -6 -18 -22 -16 -13 1 -29 3 -35 3 -7 1 -13 8 -13 16
0 10 11 15 35 15 27 0 35 -4 35 -18z m628 6 c-3 -7 -19 -14 -36 -16 -25 -3
-31 0 -26 12 7 19 68 23 62 4z m55 5 c-7 -2 -13 -11 -13 -19 0 -9 -4 -12 -10
-9 -19 12 -10 35 13 34 12 0 16 -3 10 -6z m187 -12 c0 -23 -28 -22 -42 2 -7
14 -4 17 17 17 18 0 25 -5 25 -19z"/>
<path d="M1474 1185 c-4 -9 -5 -83 -2 -165 3 -81 1 -154 -3 -162 -4 -8 -4 -19
0 -26 5 -9 13 -6 29 11 20 22 21 28 11 78 -6 30 -9 103 -7 163 2 81 0 110 -9
113 -7 3 -16 -3 -19 -12z"/>
<path d="M1554 1192 c-6 -4 -14 -16 -18 -27 -10 -33 -16 -194 -7 -200 5 -2 6
-26 3 -51 -5 -45 -4 -46 18 -34 32 17 113 14 151 -5 119 -62 155 -228 76 -346
-12 -19 -45 -46 -72 -61 -28 -15 -42 -28 -32 -28 11 0 15 -4 11 -12 -4 -7 -3
-8 5 -4 6 4 14 0 17 -8 3 -9 11 -13 16 -10 5 4 25 -10 44 -30 19 -20 39 -34
43 -31 5 2 11 -1 14 -9 3 -8 26 -24 51 -37 25 -12 46 -26 46 -30 0 -3 8 -9 18
-13 9 -3 23 -9 31 -12 9 -4 11 -2 7 5 -5 7 -1 9 8 5 9 -3 14 -9 12 -13 -10
-16 124 -36 234 -34 137 2 174 10 178 42 3 22 1 23 -30 17 -62 -13 -253 -18
-288 -8 -28 8 -17 9 55 6 108 -5 197 4 188 19 -3 6 -1 7 6 3 15 -10 71 3 71
15 0 6 -5 7 -12 3 -6 -4 -8 -3 -4 4 3 6 2 13 -4 17 -5 3 -10 11 -10 18 0 6 7
2 15 -9 11 -15 14 -16 15 -3 0 8 -5 20 -12 27 -9 9 -9 12 0 12 19 0 14 47 -5
55 -17 6 -17 7 1 20 15 12 17 17 7 29 -8 10 -9 16 -1 21 5 3 10 17 10 31 0 14
-4 23 -8 20 -5 -3 -9 1 -9 9 0 8 4 12 9 9 4 -3 8 4 8 15 0 10 -6 22 -12 24
-10 4 -10 6 0 6 18 1 15 40 -5 59 -12 13 -17 14 -21 4 -3 -9 -7 -10 -17 -2 -9
8 -17 6 -29 -5 -15 -15 -16 -15 -16 2 0 14 9 18 46 20 53 2 61 7 45 27 -8 10
-9 16 -1 21 15 9 13 58 -2 49 -10 -6 -10 -4 0 7 6 7 12 21 12 30 0 10 -6 20
-12 22 -10 4 -10 6 0 6 15 1 16 51 1 51 -5 0 -8 4 -5 9 4 5 0 12 -6 14 -8 3
-6 6 5 6 19 1 22 12 6 28 -8 8 -8 13 0 17 6 4 11 18 11 32 0 14 -4 22 -10 19
-5 -3 -10 -2 -10 4 0 5 -3 18 -6 28 -6 16 -5 16 9 -2 19 -23 23 -5 6 27 -8 15
-8 19 0 14 15 -10 14 37 -1 52 -20 20 -30 14 -28 -15 1 -16 2 -72 1 -125 -1
-97 -1 -98 -25 -98 -13 0 -27 -6 -29 -12 -4 -9 -6 -8 -6 2 -1 17 -37 24 -46 9
-4 -5 1 -9 9 -9 9 0 16 -5 16 -10 0 -7 -7 -7 -21 0 -15 9 -24 8 -36 -2 -14
-11 -16 -10 -11 10 5 18 2 22 -18 22 -25 0 -33 -15 -11 -23 6 -2 -5 -3 -25 -3
-21 1 -40 7 -43 14 -6 17 -25 15 -25 -3 0 -8 -4 -15 -10 -15 -5 0 -10 6 -10
14 0 22 -100 20 -116 -2 -12 -16 -13 -15 -9 3 3 13 -5 28 -25 43 l-30 24 10
-28 c9 -24 7 -44 -4 -33 -16 16 -24 202 -11 252 5 18 4 27 -4 27 -7 0 -11 -7
-9 -16 5 -28 -19 -27 -26 1 -8 31 -32 28 -29 -4 3 -27 -23 -28 -32 -1 -3 11
-14 20 -23 20 -9 0 -27 3 -39 6 -18 5 -25 1 -33 -22 -9 -22 -13 -25 -20 -14
-5 8 -6 18 -3 23 3 5 -3 7 -13 5 -14 -2 -18 -11 -16 -33 2 -26 1 -28 -10 -14
-16 19 -66 19 -78 -1 -8 -12 -10 -9 -10 12 0 25 2 26 29 18 33 -9 62 2 40 16
-21 13 -39 13 -39 1 0 -9 -2 -9 -8 0 -4 7 -12 9 -18 5z m236 -39 c0 -9 7 -21
17 -28 9 -7 13 -17 9 -23 -9 -14 -39 -3 -33 12 3 7 -2 20 -9 31 -14 19 -15 19
-30 -3 -8 -12 -19 -20 -24 -17 -5 3 -12 1 -15 -5 -10 -16 14 -40 33 -33 15 6
15 5 3 -10 -8 -10 -16 -15 -19 -12 -3 3 -11 0 -19 -6 -10 -9 -13 -3 -13 35 0
43 6 51 33 47 4 0 7 6 7 15 0 8 4 13 9 9 5 -3 12 -1 16 4 8 14 35 2 35 -16z
m67 -47 c-4 -9 -11 -16 -17 -16 -11 0 -14 33 -3 44 11 10 26 -11 20 -28z
m-206 -1 c5 3 6 -1 3 -9 -8 -21 -24 -21 -24 0 0 8 -4 12 -10 9 -6 -4 -7 1 -3
11 5 15 7 15 15 0 5 -9 13 -14 19 -11z m744 15 c3 -5 1 -10 -4 -10 -6 0 -11 5
-11 10 0 6 2 10 4 10 3 0 8 -4 11 -10z m-585 -72 c0 -8 6 -20 13 -28 10 -12 9
-12 -5 -1 -10 7 -18 21 -18 30 0 14 -2 14 -10 1 -8 -12 -10 -9 -10 13 0 25 2
27 15 13 8 -8 15 -21 15 -28z m45 2 c0 -7 -6 -15 -12 -17 -8 -3 -13 4 -13 17
0 13 5 20 13 18 6 -3 12 -11 12 -18z m-260 0 c3 -5 1 -10 -4 -10 -6 0 -11 5
-11 10 0 6 2 10 4 10 3 0 8 -4 11 -10z m-35 -35 c0 -5 -5 -3 -10 5 -5 8 -10
20 -10 25 0 6 5 3 10 -5 5 -8 10 -19 10 -25z m87 20 c0 -8 -4 -15 -9 -15 -10
0 -11 14 -1 23 9 10 10 9 10 -8z m63 -5 c0 -7 6 -7 20 0 11 6 20 8 20 6 0 -3
-13 -12 -30 -21 -29 -15 -30 -15 -30 5 0 11 5 20 10 20 6 0 10 -5 10 -10z
m-120 -36 c0 -8 -9 -14 -20 -14 -11 0 -20 4 -20 10 0 5 7 7 15 4 11 -5 13 -2
8 12 -4 12 -3 15 5 10 7 -4 12 -14 12 -22z m187 -36 c-3 -7 -5 -2 -5 12 0 14
2 19 5 13 2 -7 2 -19 0 -25z m-130 -3 c-7 -17 -27 -21 -27 -4 0 5 5 7 10 4 6
-3 10 2 10 11 0 10 3 15 6 11 4 -3 4 -13 1 -22z m53 -4 c0 -17 -5 -33 -11 -37
-7 -4 -10 -1 -7 7 3 8 1 24 -3 37 -6 16 -5 22 6 22 10 0 15 -10 15 -29z m122
-44 c-2 -4 -10 -3 -18 4 -20 16 -19 -7 1 -28 18 -17 11 -35 -11 -26 -10 4 -12
8 -5 12 6 4 1 17 -15 34 -24 26 -24 27 -4 27 11 0 20 6 20 14 0 26 25 24 31
-3 3 -14 4 -30 1 -34z m60 29 c4 -26 -18 -32 -25 -6 -3 11 -1 20 5 20 5 0 6 6
2 13 -5 8 -4 9 4 2 6 -5 12 -19 14 -29z m-319 -21 c-7 -21 -13 -19 -13 6 0 11
4 18 10 14 5 -3 7 -12 3 -20z m182 -16 c-4 -5 -16 -8 -28 -8 -17 1 -18 2 -4 6
9 2 17 9 17 14 0 6 5 7 10 4 6 -4 8 -11 5 -16z m112 -33 c-4 -9 -11 -16 -17
-16 -11 0 -14 33 -3 44 11 10 26 -11 20 -28z m53 -2 c-14 -16 -23 -12 -26 12
-2 10 3 14 12 10 8 -3 14 0 15 7 0 9 2 9 6 -1 3 -7 -1 -19 -7 -28z m187 -13
c-1 -11 -7 -17 -14 -14 -15 6 -15 6 -7 27 8 21 23 11 21 -13z m46 4 c-7 -21
-13 -19 -13 6 0 11 4 18 10 14 5 -3 7 -12 3 -20z m217 15 c0 -5 -7 -7 -15 -4
-8 4 -15 8 -15 10 0 2 7 4 15 4 8 0 15 -4 15 -10z m-302 -17 c-4 -20 -35 -30
-50 -15 -15 15 0 32 28 32 19 0 25 -5 22 -17z m147 -31 c-6 -6 -35 18 -35 29
0 5 9 1 20 -8 11 -9 17 -19 15 -21z m-286 -4 c-15 -26 -13 -59 5 -70 7 -5 5
-8 -6 -8 -12 0 -19 11 -24 35 -3 19 -10 32 -15 29 -5 -3 -6 2 -3 10 3 9 10 16
16 16 5 0 6 -6 3 -12 -3 -7 2 -3 11 10 21 28 30 22 13 -10z m41 22 c0 -5 -4
-10 -10 -10 -5 0 -10 5 -10 10 0 6 5 10 10 10 6 0 10 -4 10 -10z m-155 -18
c-3 -3 -11 0 -18 7 -9 10 -8 11 6 5 10 -3 15 -9 12 -12z m360 8 c3 -5 1 -10
-4 -10 -6 0 -11 5 -11 10 0 6 2 10 4 10 3 0 8 -4 11 -10z m105 -26 c0 -8 -7
-14 -16 -14 -13 0 -14 3 -5 13 8 10 7 17 -2 27 -10 12 -9 12 6 1 9 -7 17 -20
17 -27z m-415 6 c0 -7 -6 -15 -12 -17 -8 -3 -13 4 -13 17 0 13 5 20 13 18 6
-3 12 -11 12 -18z m538 7 c3 -8 -1 -14 -8 -14 -7 0 -11 6 -8 14 3 7 6 13 8 13
2 0 5 -6 8 -13z m-348 -15 c7 -4 1 -17 -14 -32 -21 -22 -22 -23 -12 -3 15 30
14 38 -4 23 -8 -7 -15 -8 -15 -3 0 21 25 30 45 15z m162 -14 c-3 -8 -6 -5 -6
6 -1 11 2 17 5 13 3 -3 4 -12 1 -19z m107 6 c9 -24 2 -26 -12 -4 -7 11 -8 20
-3 20 5 0 12 -7 15 -16z m-217 -26 c-3 -8 -6 -5 -6 6 -1 11 2 17 5 13 3 -3 4
-12 1 -19z m-162 2 c3 -5 1 -10 -4 -10 -6 0 -11 5 -11 10 0 6 2 10 4 10 3 0 8
-4 11 -10z m410 0 c3 -5 1 -10 -4 -10 -6 0 -11 5 -11 10 0 6 2 10 4 10 3 0 8
-4 11 -10z m5 -25 c0 -1 -9 -5 -20 -8 -12 -3 -20 0 -20 8 0 8 8 11 20 8 11 -3
20 -7 20 -8z m-246 -10 c-5 -12 2 -15 35 -13 30 1 41 6 41 17 1 13 3 12 11 -3
13 -22 -3 -36 -32 -29 -10 3 -19 0 -19 -6 0 -6 9 -11 20 -11 11 0 20 -7 20
-15 0 -8 5 -15 10 -15 6 0 10 -8 10 -17 0 -15 -1 -15 -14 2 -9 12 -20 16 -35
12 -19 -5 -25 1 -37 29 -8 19 -19 34 -24 34 -5 0 -7 7 -4 15 4 8 10 15 15 15
4 0 6 -7 3 -15z m-44 -5 c0 -5 -5 -10 -11 -10 -5 0 -7 5 -4 10 3 6 8 10 11 10
2 0 4 -4 4 -10z m-60 -19 c0 -21 -26 -36 -35 -21 -4 6 -1 10 4 10 6 0 11 7 11
15 0 8 5 15 10 15 6 0 10 -9 10 -19z m230 8 c0 -5 4 -8 9 -5 5 4 8 -5 6 -19
-2 -19 3 -27 21 -31 13 -3 24 -10 24 -15 0 -6 -9 -5 -21 1 -15 9 -24 8 -35 -1
-14 -11 -15 -8 -9 24 5 25 4 37 -4 37 -6 0 -11 5 -11 10 0 6 5 10 10 10 6 0
10 -5 10 -11z m-353 -13 c-3 -8 -1 -16 5 -18 6 -2 3 -9 -6 -17 -14 -11 -16
-11 -16 2 0 19 10 47 17 47 3 0 3 -6 0 -14z m42 -28 c1 -5 -3 -8 -9 -8 -5 0
-10 12 -9 28 0 24 1 25 9 7 5 -11 9 -23 9 -27z m381 32 c0 -5 -7 -10 -16 -10
-8 0 -12 5 -9 10 3 6 10 10 16 10 5 0 9 -4 9 -10z m-263 -42 c-3 -8 -6 -5 -6
6 -1 11 2 17 5 13 3 -3 4 -12 1 -19z m63 2 c0 -11 -5 -20 -11 -20 -6 0 -9 6
-6 14 3 8 1 17 -6 20 -7 2 -4 5 6 5 11 1 17 -6 17 -19z m-135 -10 c-3 -5 -11
-10 -16 -10 -6 0 -7 5 -4 10 3 6 11 10 16 10 6 0 7 -4 4 -10z m-42 -17 c-8
-21 -24 -34 -35 -27 -12 8 -10 34 3 34 5 0 7 -6 4 -12 -3 -7 0 -5 7 5 7 9 16
17 20 17 4 0 4 -8 1 -17z m-69 -8 c3 -9 0 -15 -9 -15 -9 0 -12 6 -9 15 4 8 7
15 9 15 2 0 5 -7 9 -15z m540 0 c3 -8 1 -15 -4 -15 -6 0 -10 7 -10 15 0 8 2
15 4 15 2 0 6 -7 10 -15z m-336 -28 c-11 -19 -13 -20 -16 -4 -2 9 -10 17 -18
17 -17 0 -19 -17 -2 -22 8 -3 7 -6 -3 -10 -10 -4 -15 1 -16 14 -2 20 32 39 54
31 10 -4 10 -10 1 -26z m38 4 c-12 -19 -24 -12 -19 10 4 13 9 17 15 11 6 -6 7
-15 4 -21z m47 4 c-7 -21 -13 -19 -13 6 0 11 4 18 10 14 5 -3 7 -12 3 -20z
m217 15 c0 -5 -7 -7 -15 -4 -8 4 -15 8 -15 10 0 2 7 4 15 4 8 0 15 -4 15 -10z
m-243 -22 c-3 -8 -6 -5 -6 6 -1 11 2 17 5 13 3 -3 4 -12 1 -19z m88 -26 c-6
-6 -35 18 -35 29 0 5 9 1 20 -8 11 -9 17 -19 15 -21z m-287 -4 c-14 -26 -11
-60 6 -70 7 -5 5 -8 -5 -8 -17 0 -30 27 -34 68 -1 16 2 21 11 18 8 -3 14 -1
14 4 0 6 5 10 10 10 7 0 6 -8 -2 -22z m247 12 c3 -5 1 -10 -4 -10 -6 0 -11 5
-11 10 0 6 2 10 4 10 3 0 8 -4 11 -10z m105 -26 c0 -14 -19 -20 -21 -6 0 4 -2
15 -4 25 -3 15 -1 16 11 6 8 -6 14 -18 14 -25z m-418 -6 c-15 -15 -24 -6 -16
16 5 12 10 14 17 7 8 -8 8 -14 -1 -23z m195 4 c9 -6 7 -11 -7 -20 -17 -10 -18
-9 -13 6 6 15 3 14 -17 -3 l-23 -20 12 23 c12 23 27 27 48 14z m267 -8 c9 -23
4 -24 -16 -2 -14 14 -15 18 -4 18 8 0 17 -7 20 -16z m-217 -26 c-3 -8 -6 -5
-6 6 -1 11 2 17 5 13 3 -3 4 -12 1 -19z m-162 2 c3 -5 1 -10 -4 -10 -6 0 -11
5 -11 10 0 6 2 10 4 10 3 0 8 -4 11 -10z m410 0 c3 -5 1 -10 -4 -10 -6 0 -11
5 -11 10 0 6 2 10 4 10 3 0 8 -4 11 -10z m0 -28 c-12 -12 -35 -10 -35 3 0 8 7
11 20 8 12 -3 18 -8 15 -11z m-237 -4 c-2 -6 -10 -14 -16 -16 -7 -2 -10 2 -6
12 7 18 28 22 22 4z m-331 -20 c-3 -8 -6 -5 -6 6 -1 11 2 17 5 13 3 -3 4 -12
1 -19z m410 -10 c-17 -11 -28 1 -14 16 8 10 14 11 19 3 4 -6 2 -15 -5 -19z
m-364 -15 c5 -25 3 -33 -7 -33 -8 0 -16 6 -19 13 -2 6 -7 9 -11 6 -4 -4 3 -17
15 -28 20 -18 24 -19 32 -6 12 22 30 7 23 -20 -5 -19 -1 -25 22 -33 23 -8 31
-6 38 6 9 14 11 14 17 -2 4 -10 3 -15 -3 -11 -6 3 -10 0 -10 -7 0 -8 16 -20
36 -27 31 -11 37 -11 48 5 8 10 20 15 29 11 10 -4 20 1 26 11 6 9 11 12 11 6
0 -5 -10 -21 -21 -33 -18 -19 -19 -25 -8 -33 31 -22 -50 5 -126 42 -49 24
-103 60 -140 95 -33 30 -50 50 -37 43 12 -7 22 -16 22 -19 0 -4 11 -2 25 4 14
7 25 21 25 31 0 27 6 17 13 -21z m151 -21 l-27 -27 24 45 c17 33 24 40 27 27
2 -10 -8 -30 -24 -45z m271 38 c-3 -5 -1 -11 5 -15 6 -4 8 -11 4 -16 -3 -6 3
-13 15 -16 12 -3 21 -9 21 -15 0 -5 -9 -4 -21 2 -15 9 -24 8 -35 -1 -14 -11
-15 -8 -9 24 5 26 4 37 -4 37 -7 0 -10 4 -6 10 3 5 12 7 20 4 8 -4 13 -10 10
-14z m-355 -1 c0 -6 -8 -8 -17 -5 -17 6 -17 5 0 -8 14 -11 15 -15 3 -25 -11
-9 -15 -6 -18 14 -3 13 -3 27 0 30 10 9 32 5 32 -6z m36 -47 c7 -18 9 -30 4
-27 -6 3 -10 2 -10 -4 0 -6 -8 -15 -18 -20 -15 -8 -18 -5 -20 16 -1 19 2 24
13 19 12 -4 14 2 10 37 -3 23 -2 35 1 27 4 -8 13 -30 20 -48z m218 46 c-3 -4
0 -16 5 -25 6 -10 11 -12 11 -5 0 17 20 15 20 -3 0 -8 5 -15 10 -15 6 0 10 -7
10 -15 0 -8 -4 -15 -10 -15 -5 0 -9 6 -7 13 1 7 -8 12 -23 12 -15 0 -32 10
-42 24 -19 28 -16 40 12 38 10 -1 16 -5 14 -9z m156 2 c0 -5 -7 -10 -16 -10
-8 0 -12 5 -9 10 3 6 10 10 16 10 5 0 9 -4 9 -10z m-260 -30 c0 -5 -5 -10 -11
-10 -5 0 -7 5 -4 10 3 6 8 10 11 10 2 0 4 -4 4 -10z m57 4 c-3 -3 -12 -4 -19
-1 -8 3 -5 6 6 6 11 1 17 -2 13 -5z m233 -1 c0 -5 -5 -15 -10 -23 -8 -12 -10
-11 -10 8 0 12 5 22 10 22 6 0 10 -3 10 -7z m34 -2 c3 -5 0 -14 -7 -19 -10 -8
-13 -6 -14 9 -2 19 11 26 21 10z m-268 -43 c-1 -29 -6 -33 -47 -44 -44 -11
-46 -10 -45 10 1 16 9 22 35 24 21 2 31 0 26 -7 -3 -6 -1 -11 4 -11 6 0 11 14
11 30 0 17 4 30 9 30 5 0 8 -14 7 -32z m298 -3 c3 -8 1 -15 -4 -15 -6 0 -10 7
-10 15 0 8 2 15 4 15 2 0 6 -7 10 -15z m-252 -27 c-9 -9 -12 -7 -12 12 0 19 3
21 12 12 9 -9 9 -15 0 -24z m62 -27 c-5 -6 -34 20 -34 30 0 5 8 1 18 -8 10
-10 17 -20 16 -22z m-244 19 c0 -5 -2 -10 -4 -10 -3 0 -8 5 -11 10 -3 6 -1 10
4 10 6 0 11 -4 11 -10z m310 -36 c0 -8 -7 -14 -16 -14 -13 0 -14 3 -5 13 8 10
7 17 -2 27 -10 12 -9 12 6 1 9 -7 17 -20 17 -27z m49 -29 c0 -5 -4 -3 -9 5 -5
8 -9 22 -9 30 0 16 17 -16 18 -35z m-112 13 c-3 -8 -6 -5 -6 6 -1 11 2 17 5
13 3 -3 4 -12 1 -19z m-110 -20 c-3 -8 -6 -5 -6 6 -1 11 2 17 5 13 3 -3 4 -12
1 -19z"/>
<path d="M2010 850 c0 -5 7 -10 15 -10 8 0 15 5 15 10 0 6 -7 10 -15 10 -8 0
-15 -4 -15 -10z"/>
<path d="M2010 305 c-8 -9 -8 -15 -2 -15 12 0 26 19 19 26 -2 2 -10 -2 -17
-11z"/>
<path d="M2010 370 c0 -5 7 -10 15 -10 8 0 15 5 15 10 0 6 -7 10 -15 10 -8 0
-15 -4 -15 -10z"/>
<path d="M1915 1190 c-14 -23 8 -38 60 -39 48 0 54 2 58 22 l4 22 2 -22 c1
-20 7 -23 42 -23 41 0 41 0 27 23 -12 16 -27 23 -60 25 -39 3 -46 0 -51 -19
-3 -12 -10 -18 -17 -14 -6 4 -9 12 -7 19 5 13 -50 20 -58 6z m182 -26 c-3 -3
-12 -4 -19 -1 -8 3 -5 6 6 6 11 1 17 -2 13 -5z"/>
<path d="M2250 1190 c-10 -6 -11 -10 -3 -10 7 0 10 -7 7 -15 -5 -11 1 -15 25
-15 23 0 31 5 31 18 1 16 1 16 14 0 15 -20 31 -25 20 -6 -5 7 -2 9 8 6 8 -4
21 -2 28 2 11 7 8 12 -13 21 -21 9 -33 9 -57 -1 -23 -10 -34 -10 -39 -2 -4 7
-12 8 -21 2z"/>
<path d="M2134 1178 c-4 -7 -2 -8 4 -4 7 4 12 3 12 -3 0 -6 7 -8 15 -5 8 4 15
1 15 -5 0 -6 11 -11 25 -11 17 0 25 5 25 18 0 14 -9 18 -45 19 -25 1 -48 -3
-51 -9z"/>
<path d="M297 1143 c-11 -10 -8 -25 3 -18 6 3 10 1 10 -4 0 -14 -6 -14 -29 0
-19 13 -71 5 -71 -10 0 -5 8 -12 18 -14 16 -4 16 -5 0 -6 -11 -1 -18 -9 -18
-21 0 -13 5 -18 15 -14 8 4 15 1 15 -5 0 -6 -7 -11 -16 -11 -9 0 -14 -6 -11
-12 2 -9 30 -13 85 -14 59 -2 80 1 75 10 -4 6 1 5 10 -3 15 -12 17 -11 17 3 0
9 -8 16 -20 16 -17 0 -20 7 -20 45 0 33 -4 45 -15 45 -18 0 -19 -12 -3 -28 9
-9 7 -12 -8 -12 -17 0 -20 5 -16 30 4 28 -6 39 -21 23z m-27 -33 c8 -5 11 -12
8 -15 -4 -4 -17 0 -30 9 -24 17 -5 23 22 6z m-13 -52 c-3 -8 -6 -5 -6 6 -1 11
2 17 5 13 3 -3 4 -12 1 -19z m95 -16 c5 -16 2 -17 -28 -8 -42 13 -44 26 -5 26
19 0 30 -6 33 -18z"/>
<path d="M148 1132 c-21 -4 -21 -3 -8 -36 6 -16 6 -27 0 -31 -20 -12 -10 -35
15 -35 16 0 25 6 25 15 0 8 -6 15 -13 15 -7 0 -13 9 -13 19 0 14 4 17 12 10 8
-6 13 -3 17 10 6 24 -11 39 -35 33z"/>
<path d="M2110 1077 c0 -67 -19 -110 -58 -131 -25 -14 -14 -15 138 -16 l165 0
-2 85 c-1 47 -2 93 -2 103 -1 15 -14 17 -121 17 l-120 0 0 -58z m100 5 c0 -4
-18 -8 -40 -9 -22 -1 -40 3 -40 8 0 5 18 9 40 9 22 0 40 -3 40 -8z m130 0 c0
-9 -6 -10 -50 -12 -56 -1 -70 1 -70 10 0 6 27 10 60 10 33 0 60 -4 60 -8z
m-140 -43 c0 -5 -16 -9 -35 -9 -19 0 -35 4 -35 9 0 5 16 9 35 9 19 0 35 -4 35
-9z m30 1 c0 -5 -5 -10 -11 -10 -5 0 -7 5 -4 10 3 6 8 10 11 10 2 0 4 -4 4
-10z m110 0 c0 -5 -9 -10 -20 -10 -11 0 -20 5 -20 10 0 6 9 10 20 10 11 0 20
-4 20 -10z m-130 -40 c0 -5 -18 -10 -40 -10 -22 0 -40 5 -40 10 0 6 18 10 40
10 22 0 40 -4 40 -10z m125 0 c3 -5 -13 -9 -40 -8 -25 0 -45 4 -45 9 0 12 77
11 85 -1z"/>
<path d="M2012 1060 c0 -19 2 -27 5 -17 2 9 2 25 0 35 -3 9 -5 1 -5 -18z"/>
<path d="M1991 1044 c0 -11 3 -14 6 -6 3 7 2 16 -1 19 -3 4 -6 -2 -5 -13z"/>
<path d="M854 915 c-5 -11 -25 -15 -83 -16 -42 -1 -66 -4 -53 -6 25 -5 30 -23
7 -23 -22 0 -18 -27 5 -40 41 -22 82 26 43 50 -16 10 -16 10 2 8 15 -2 21 -13
24 -38 l4 -35 6 34 c3 19 11 36 18 38 7 3 9 -3 6 -16 -3 -12 -1 -21 6 -21 6 0
11 -5 11 -11 0 -5 -4 -7 -10 -4 -5 3 -10 1 -10 -4 0 -15 27 -14 36 1 4 6 -1
17 -11 25 -17 12 -17 13 -2 13 9 0 17 3 18 8 0 4 2 17 3 30 3 25 -12 30 -20 7z"/>
<path d="M146 893 c6 -4 11 -17 11 -28 0 -11 -5 -23 -11 -27 -7 -5 -5 -8 5 -8
8 0 20 5 27 12 9 9 12 8 12 -5 0 -9 5 -17 11 -17 7 0 9 9 6 21 -7 27 1 49 19
49 12 0 12 -4 2 -21 -11 -17 -10 -22 6 -35 28 -20 36 -18 36 10 0 13 3 31 6
40 5 13 -2 16 -44 16 -45 0 -50 -2 -45 -20 3 -11 1 -20 -5 -20 -5 0 -9 8 -8
17 0 10 -7 19 -19 21 -12 2 -16 0 -9 -5z m106 -30 c-6 -3 -10 -9 -6 -14 3 -5
0 -9 -5 -9 -6 0 -11 4 -11 8 0 12 23 32 29 25 3 -3 0 -8 -7 -10z"/>
<path d="M317 893 c-4 -3 -7 -11 -7 -17 0 -6 5 -5 12 2 6 6 9 14 7 17 -3 3 -9
2 -12 -2z"/>
<path d="M345 883 c0 -10 4 -24 8 -30 4 -7 0 -13 -10 -16 -14 -4 -13 -5 4 -6
12 0 24 5 26 12 3 7 6 5 6 -5 2 -33 20 -18 24 20 l4 37 1 -37 c2 -48 22 -50
22 -3 0 19 4 35 9 35 6 0 9 -12 8 -27 -2 -21 2 -28 16 -27 21 2 22 -12 1 -24
-14 -8 -14 -10 0 -21 25 -21 36 -4 29 44 -4 31 -2 45 6 45 6 0 10 -3 10 -7 -5
-29 3 -35 35 -30 27 4 36 2 39 -11 3 -9 5 1 6 22 1 45 17 39 24 -9 4 -27 4
-26 6 8 1 30 5 37 21 37 11 0 20 -4 20 -10 0 -5 -7 -10 -15 -10 -8 0 -15 -4
-15 -10 0 -5 7 -7 15 -4 10 4 15 0 15 -16 0 -11 4 -19 9 -16 5 3 9 22 9 41 l0
35 -149 0 c-142 0 -149 -1 -149 -20 0 -11 -4 -20 -9 -20 -5 0 -8 7 -7 16 0 9
-4 19 -10 21 -6 2 -10 -5 -9 -14z m205 -14 c0 -6 -4 -7 -10 -4 -5 3 -10 1 -10
-6 0 -7 -2 -10 -5 -7 -9 8 6 38 16 32 5 -3 9 -10 9 -15z m25 12 c3 -5 1 -12
-5 -16 -5 -3 -10 1 -10 9 0 18 6 21 15 7z m-95 -16 c0 -8 -7 -15 -15 -15 -9 0
-12 6 -9 15 4 8 10 15 15 15 5 0 9 -7 9 -15z"/>
<path d="M887 893 c-4 -3 -7 -11 -7 -17 0 -6 5 -5 12 2 6 6 9 14 7 17 -3 3 -9
2 -12 -2z"/>
<path d="M937 893 c9 -3 10 -10 4 -22 -12 -21 -3 -36 27 -43 20 -6 22 -2 22
28 0 27 4 34 20 34 11 0 20 -4 20 -10 0 -5 -7 -10 -15 -10 -8 0 -15 -8 -14
-17 0 -11 3 -13 6 -5 8 20 23 14 24 -10 1 -15 4 -11 8 11 3 19 12 36 19 39 11
3 12 0 4 -15 -13 -23 -5 -38 26 -47 20 -7 22 -4 23 31 l2 38 7 -40 c7 -39 7
-39 9 -7 0 19 7 35 16 39 24 9 31 -5 10 -21 -12 -9 -15 -15 -7 -20 7 -4 12 -2
12 4 0 6 5 8 10 5 6 -4 8 -10 5 -15 -3 -5 -1 -11 5 -15 6 -4 10 8 10 31 0 21
3 34 7 31 3 -4 6 -20 5 -37 0 -16 4 -30 9 -30 5 0 9 11 9 24 0 13 3 31 6 40 5
14 -11 16 -147 15 -85 0 -148 -3 -142 -6z m149 -51 c-11 -10 -15 4 -8 28 l7
25 3 -23 c2 -13 1 -26 -2 -30z m-106 22 c0 -8 -4 -12 -10 -9 -5 3 -10 1 -10
-6 0 -7 -3 -9 -6 -6 -4 4 -1 13 6 22 16 19 20 19 20 -1z"/>
<path d="M1571 838 c-1 -20 0 -21 23 -12 9 3 16 11 16 16 0 6 -6 6 -14 -1 -11
-9 -15 -9 -19 1 -4 8 -6 7 -6 -4z"/>
<path d="M1630 841 c0 -17 15 -19 28 -5 11 12 9 14 -8 14 -11 0 -20 -4 -20 -9z"/>
<path d="M1674 829 c-5 -8 -3 -9 6 -4 7 4 16 2 22 -6 8 -12 9 -12 6 0 -6 20
-24 25 -34 10z"/>
<path d="M1524 819 c-3 -6 -2 -15 3 -20 5 -5 9 -1 9 11 0 23 -2 24 -12 9z"/>
<path d="M1715 799 c-4 -6 -5 -12 -2 -15 2 -3 7 2 10 11 7 17 1 20 -8 4z"/>
<path d="M1492 780 c-6 -10 -8 -21 -3 -24 13 -8 31 18 23 31 -6 9 -11 6 -20
-7z"/>
<path d="M378 763 c0 -10 -1 -26 0 -35 2 -25 -14 -23 -21 2 -5 20 -27 28 -27
10 0 -5 4 -10 8 -10 12 0 11 -34 -2 -42 -6 -4 -7 -10 -3 -14 4 -4 13 -2 19 4
15 15 32 16 23 2 -3 -5 -2 -10 4 -10 5 0 12 15 14 33 l4 32 1 -32 c2 -41 22
-44 22 -3 0 20 5 30 15 30 18 0 20 -16 3 -23 -10 -3 -9 -9 4 -22 16 -18 17
-17 16 1 -1 10 2 29 6 42 7 19 4 22 -22 22 -17 0 -32 6 -36 15 -7 21 -26 19
-28 -2z"/>
<path d="M535 743 c-7 -35 -8 -36 -16 -15 -12 32 -26 27 -21 -8 4 -31 22 -52
22 -28 1 8 6 6 15 -6 14 -19 15 -18 16 15 0 27 2 30 8 14 5 -11 6 -26 4 -32
-3 -7 -1 -13 5 -13 13 0 21 71 10 93 -15 29 -35 19 -43 -20z"/>
<path d="M147 712 c3 -20 13 -43 22 -51 15 -13 15 -13 -1 -8 -23 8 -24 -9 -1
-17 26 -10 37 9 24 44 -12 35 -8 50 13 50 15 0 17 -32 2 -42 -6 -4 -7 -10 -3
-14 3 -4 14 -1 23 6 13 12 17 11 25 -1 6 -10 9 -5 9 19 0 17 5 32 10 32 6 0
10 -14 10 -32 0 -40 5 -34 13 14 l5 36 -78 1 -79 0 6 -37z m103 8 c0 -5 -4
-10 -10 -10 -5 0 -10 5 -10 10 0 6 5 10 10 10 6 0 10 -4 10 -10z"/>
<path d="M623 733 c1 -10 6 -24 10 -30 6 -9 2 -13 -9 -13 -15 0 -16 -2 -5 -12
10 -11 15 -9 27 6 12 17 14 18 14 3 0 -31 19 -18 23 16 l4 32 1 -32 c2 -41 22
-44 22 -3 0 17 4 30 9 30 6 0 9 -12 8 -26 -1 -15 4 -29 11 -31 7 -3 10 1 6 11
-3 9 -1 16 5 16 6 0 11 -7 11 -15 0 -30 20 -14 21 18 l2 32 7 -35 7 -35 2 33
c1 28 4 32 29 31 26 0 27 0 4 -10 -13 -5 -20 -14 -16 -20 4 -8 9 -7 15 2 6 10
10 7 18 -11 l10 -25 0 27 c1 14 4 33 7 42 5 14 -7 16 -100 16 -99 0 -106 -1
-106 -20 0 -11 -4 -20 -9 -20 -5 0 -8 7 -7 16 0 9 -5 19 -12 21 -7 3 -11 -2
-9 -14z m137 -13 c0 -5 -2 -10 -4 -10 -3 0 -8 5 -11 10 -3 6 -1 10 4 10 6 0
11 -4 11 -10z"/>
<path d="M1564 716 c5 -19 1 -28 -14 -36 -36 -19 -12 -28 70 -28 83 0 105 9
71 28 -17 8 -19 15 -11 35 12 32 -3 33 -35 1 -21 -21 -26 -22 -36 -10 -7 9
-21 20 -32 26 -18 9 -19 8 -13 -16z"/>
<path d="M1470 710 c-9 -6 -10 -10 -3 -10 6 0 15 5 18 10 8 12 4 12 -15 0z"/>
<path d="M1760 709 c0 -5 5 -7 10 -4 6 3 10 8 10 11 0 2 -4 4 -10 4 -5 0 -10
-5 -10 -11z"/>
<path d="M1465 680 c3 -5 8 -10 11 -10 2 0 4 5 4 10 0 6 -5 10 -11 10 -5 0 -7
-4 -4 -10z"/>
<path d="M1608 628 c-23 -23 -23 -23 12 -23 17 0 30 3 30 8 0 4 -5 7 -11 7 -5
0 -8 4 -4 9 11 18 -10 18 -27 -1z"/>
<path d="M346 591 c-4 -5 -2 -20 3 -33 9 -21 10 -21 10 10 1 32 -3 39 -13 23z"/>
<path d="M746 573 c7 -37 14 -42 14 -10 0 14 -4 28 -9 32 -6 3 -8 -6 -5 -22z"/>
<path d="M569 580 c-7 -5 -9 -16 -5 -26 6 -16 7 -16 21 2 9 11 14 13 13 5 -2
-7 3 -16 11 -19 8 -2 11 0 7 6 -3 6 -2 13 3 16 5 4 12 -2 14 -11 3 -12 5 -10
6 7 1 21 -4 25 -28 26 -16 1 -35 -2 -42 -6z"/>
<path d="M981 581 c-8 -6 -11 -16 -7 -27 5 -12 10 -14 17 -7 16 16 7 45 -10
34z"/>
<path d="M144 562 c0 -10 6 -19 13 -19 7 0 13 7 13 16 0 11 3 10 15 -5 14 -19
14 -18 15 4 0 18 -6 22 -28 22 -20 0 -28 -5 -28 -18z"/>
<path d="M220 560 c0 -13 5 -18 15 -14 8 4 15 11 15 18 0 7 3 7 8 -1 14 -22
85 -21 76 1 -4 9 -23 14 -60 15 -47 0 -54 -2 -54 -19z"/>
<path d="M381 563 c-1 -27 14 -30 28 -5 10 16 10 15 11 -3 l1 -20 9 20 c8 19
9 19 9 1 1 -18 2 -18 14 -4 6 9 19 18 27 20 8 3 -6 6 -32 6 -39 1 -48 -2 -49
-16 0 -14 -2 -14 -9 3 -8 19 -9 19 -9 -2z"/>
<path d="M500 560 c0 -13 7 -20 19 -20 14 0 18 5 14 20 -3 11 -12 20 -19 20
-8 0 -14 -9 -14 -20z"/>
<path d="M664 563 c4 -24 36 -26 36 -2 0 12 -7 19 -19 19 -12 0 -18 -6 -17
-17z"/>
<path d="M720 566 c0 -9 5 -16 10 -16 6 0 10 4 10 9 0 6 -4 13 -10 16 -5 3
-10 -1 -10 -9z"/>
<path d="M783 565 c0 -7 7 -11 15 -7 9 3 13 1 9 -5 -4 -7 0 -10 10 -9 10 2 19
11 21 22 3 16 1 17 -7 4 -6 -8 -11 -10 -11 -5 0 6 -8 11 -18 12 -10 1 -19 -4
-19 -12z"/>
<path d="M872 560 c0 -14 2 -19 5 -12 2 6 2 18 0 25 -3 6 -5 1 -5 -13z"/>
<path d="M897 573 c-11 -10 -8 -20 7 -26 10 -4 12 0 9 14 -6 21 -7 22 -16 12z"/>
<path d="M928 558 c2 -10 6 -18 7 -18 1 0 5 8 7 18 3 11 0 19 -7 19 -7 0 -10
-8 -7 -19z"/>
<path d="M1560 520 c0 -5 5 -10 10 -10 6 0 10 5 10 10 0 6 -4 10 -10 10 -5 0
-10 -4 -10 -10z"/>
<path d="M1675 520 c3 -5 8 -10 11 -10 2 0 4 5 4 10 0 6 -5 10 -11 10 -5 0 -7
-4 -4 -10z"/>
<path d="M900 490 c0 -36 16 -40 22 -6 3 15 0 27 -8 30 -10 4 -14 -3 -14 -24z"/>
<path d="M960 497 c0 -18 -2 -19 -10 -7 -7 12 -9 11 -8 -6 2 -15 9 -20 29 -19
36 0 44 27 13 42 -21 10 -24 9 -24 -10z"/>
<path d="M1590 511 c0 -5 5 -13 10 -16 6 -3 10 -2 10 4 0 5 -4 13 -10 16 -5 3
-10 2 -10 -4z"/>
<path d="M1650 504 c0 -8 5 -12 10 -9 6 4 8 11 5 16 -9 14 -15 11 -15 -7z"/>
<path d="M589 503 c-29 -3 -36 -8 -32 -22 6 -22 73 -27 73 -5 0 8 5 14 11 14
5 0 7 5 4 10 -3 6 -9 9 -13 8 -4 -1 -23 -3 -43 -5z"/>
<path d="M825 500 c-27 -4 -43 -8 -35 -9 13 -1 13 -2 0 -11 -16 -11 -15 -11
48 -15 38 -2 42 0 42 21 0 13 -1 23 -2 22 -2 0 -25 -4 -53 -8z"/>
<path d="M1123 502 c-33 -2 -43 -7 -43 -20 0 -14 9 -18 40 -18 22 0 40 4 40 9
0 5 -8 6 -17 2 -15 -5 -16 -4 -5 7 11 11 16 10 28 -6 14 -19 14 -19 14 1 0 27
-5 29 -57 25z"/>
<path d="M1200 485 c0 -14 5 -25 10 -25 6 0 10 11 10 25 0 14 -4 25 -10 25 -5
0 -10 -11 -10 -25z"/>
<path d="M143 479 c-2 -21 -1 -21 12 -3 13 18 14 18 15 2 0 -10 4 -18 9 -18 5
0 12 8 14 18 4 16 5 16 6 0 1 -24 17 -23 24 2 5 18 0 20 -37 20 -35 0 -42 -3
-43 -21z"/>
<path d="M244 481 c0 -11 5 -17 13 -14 7 3 13 9 13 14 0 5 5 9 10 9 6 0 9 -4
8 -9 -2 -5 2 -8 7 -7 6 0 9 6 7 11 -1 6 4 2 11 -7 15 -18 27 -14 27 9 0 9 -15
13 -48 13 -40 0 -48 -3 -48 -19z"/>
<path d="M360 489 c0 -5 5 -7 12 -3 8 5 9 2 5 -10 -5 -12 -3 -16 5 -13 7 2 12
10 10 17 -1 6 3 10 10 7 7 -2 12 -10 10 -16 -1 -7 2 -10 8 -6 6 3 8 11 5 16
-4 5 -1 9 4 9 6 0 12 -12 12 -27 1 -19 3 -22 6 -9 4 14 11 17 34 12 15 -3 31
-1 34 4 3 5 -5 11 -17 13 -20 4 -20 4 4 6 18 1 28 -5 31 -16 4 -14 5 -12 6 5
1 21 -2 22 -89 22 -57 0 -90 -4 -90 -11z"/>
<path d="M664 483 c3 -22 26 -30 26 -9 0 9 5 16 10 16 6 0 9 -4 8 -9 -2 -5 2
-8 7 -7 6 0 9 5 7 9 -1 5 2 6 8 2 6 -3 8 -11 5 -16 -4 -5 1 -9 9 -9 9 0 16 9
16 20 0 17 -7 20 -49 20 -41 0 -49 -3 -47 -17z"/>
<path d="M1020 485 c0 -8 5 -15 11 -15 5 0 7 5 4 10 -3 6 -2 10 4 10 5 0 12
-8 14 -17 4 -14 5 -12 6 5 1 16 -5 22 -19 22 -11 0 -20 -7 -20 -15z"/>
<path d="M180 401 c0 -6 4 -12 8 -15 5 -3 9 1 9 9 0 8 -4 15 -9 15 -4 0 -8 -4
-8 -9z"/>
<path d="M281 394 c0 -11 3 -14 6 -6 3 7 2 16 -1 19 -3 4 -6 -2 -5 -13z"/>
<path d="M562 390 c0 -14 2 -19 5 -12 2 6 2 18 0 25 -3 6 -5 1 -5 -13z"/>
<path d="M602 390 c0 -14 2 -19 5 -12 2 6 2 18 0 25 -3 6 -5 1 -5 -13z"/>
<path d="M888 403 c7 -3 16 -2 19 1 4 3 -2 6 -13 5 -11 0 -14 -3 -6 -6z"/>
<path d="M301 374 c0 -11 3 -14 6 -6 3 7 2 16 -1 19 -3 4 -6 -2 -5 -13z"/>
<path d="M991 374 c0 -11 3 -14 6 -6 3 7 2 16 -1 19 -3 4 -6 -2 -5 -13z"/>
</g>
</svg>
