<?xml version="1.0" standalone="no"?>
<!DOCTYPE svg PUBLIC "-//W3C//DTD SVG 20010904//EN"
 "http://www.w3.org/TR/2001/REC-SVG-20010904/DTD/svg10.dtd">
<svg version="1.0" xmlns="http://www.w3.org/2000/svg"
 width="405.000000pt" height="124.000000pt" viewBox="0 0 405.000000 124.000000"
 preserveAspectRatio="xMidYMid meet">

<g transform="translate(0.000000,124.000000) scale(0.100000,-0.100000)"
fill="#000000" stroke="none">
<path d="M0 620 c0 -544 2 -620 15 -620 13 0 15 25 15 165 l0 165 175 0 175 0
0 -165 0 -165 1024 0 c810 0 1025 3 1029 13 3 9 9 9 26 -1 16 -9 196 -12 806
-12 l785 0 0 620 0 620 -2025 0 -2025 0 0 -620z m310 570 c0 -15 120 -13 121
3 0 6 4 1 10 -11 12 -32 4 -42 -36 -42 -24 0 -35 5 -38 18 -3 10 -5 6 -6 -10
0 -16 4 -28 9 -28 6 0 10 -10 9 -22 0 -22 -1 -22 -9 -3 -7 17 -9 17 -9 3 -1
-12 -9 -18 -27 -18 -14 0 -23 -4 -20 -9 6 -9 80 -6 96 4 16 10 60 -7 61 -24 1
-14 2 -13 6 2 7 28 23 20 23 -12 0 -35 -18 -50 -34 -30 -6 8 -22 14 -36 15
-14 0 -24 5 -22 12 1 7 -2 12 -8 12 -5 0 -10 -6 -10 -14 0 -19 -63 -16 -72 4
-5 12 -7 12 -7 -3 -1 -15 -10 -17 -66 -16 -56 1 -65 4 -65 20 0 10 5 21 10 24
6 3 9 16 9 28 -1 17 -2 18 -6 5 -9 -36 -23 -17 -23 32 l0 49 38 1 c76 1 82 2
82 11 0 5 5 9 10 9 6 0 10 -4 10 -10z m1550 -5 c0 -8 7 -15 15 -15 8 0 15 -7
15 -15 0 -8 -7 -15 -15 -15 -8 0 -15 -7 -15 -15 0 -8 -7 -15 -15 -15 -8 0 -15
7 -15 15 0 8 -7 15 -15 15 -8 0 -15 7 -15 15 0 8 7 15 15 15 8 0 15 7 15 15 0
8 7 15 15 15 8 0 15 -7 15 -15z m-1720 -5 c16 -8 17 -15 10 -38 -6 -15 -9 -40
-7 -57 2 -24 -2 -31 -20 -33 -13 -2 -20 -8 -17 -17 4 -9 -3 -13 -20 -11 -29 1
-36 16 -8 16 13 0 14 2 3 9 -9 6 -11 18 -6 39 4 18 1 40 -6 53 -10 19 -9 25 7
36 21 16 39 16 64 3z m1604 -11 c48 -38 20 -129 -41 -129 -16 0 -23 -6 -23
-20 0 -11 -4 -20 -8 -20 -5 0 -17 9 -27 20 -15 16 -31 20 -86 20 -37 0 -75 3
-84 6 -26 10 -45 63 -34 94 17 44 35 50 160 50 103 0 119 -2 143 -21z m314
-21 c7 -7 31 -12 54 -13 46 -1 55 -14 57 -82 1 -17 6 -35 11 -38 6 -4 9 -3 8
2 -2 4 2 10 7 12 18 8 17 -27 -2 -46 -10 -10 -29 -35 -41 -56 -44 -70 -135
-69 -172 2 -10 21 -26 43 -34 50 -18 15 -22 61 -6 61 6 0 10 -4 10 -10 0 -5 5
-10 10 -10 6 0 10 20 10 44 0 65 54 118 88 84z m-1903 -118 c-3 -5 -12 -7 -20
-3 -21 7 -19 13 6 13 11 0 18 -4 14 -10z m2621 -6 c-9 -8 -16 -23 -17 -32 0
-10 -3 -12 -5 -5 -7 15 13 53 27 53 6 0 3 -7 -5 -16z m163 -160 c-8 -10 -35
-14 -90 -14 -67 0 -80 3 -89 19 -13 25 -13 41 0 41 6 0 9 -3 9 -7 -7 -41 -1
-44 84 -41 l82 3 5 80 4 80 4 -73 c2 -46 -1 -79 -9 -88z m71 117 c0 -10 -7
-18 -15 -18 -8 0 -15 4 -15 9 0 4 4 8 10 8 5 0 6 7 3 17 -4 11 -3 14 5 9 7 -4
12 -15 12 -25z m44 7 c-3 -10 -1 -18 5 -18 5 0 11 8 13 17 2 9 13 17 25 18 13
1 21 -1 18 -3 -7 -7 15 -32 29 -32 6 0 4 5 -4 10 -13 8 -13 11 -1 22 9 8 11 9
7 1 -3 -6 -2 -14 4 -18 18 -11 10 -25 -15 -25 -14 0 -24 3 -22 8 2 8 -6 12
-25 12 -10 0 -10 -2 0 -9 8 -5 -3 -8 -30 -8 -24 0 -37 2 -30 4 6 3 12 11 12
19 0 9 -4 12 -10 9 -5 -3 -10 -2 -10 4 0 5 9 9 20 8 14 -1 18 -6 14 -19z m176
-4 c0 -21 -4 -24 -20 -19 -13 4 -20 2 -21 -7 0 -7 -4 -4 -9 7 -12 27 -12 43 0
25 9 -13 10 -13 10 0 1 11 4 10 15 -4 15 -19 15 -19 15 2 0 12 2 22 5 22 3 0
5 -12 5 -26z m52 1 c-6 -33 -42 -35 -41 -2 0 21 1 21 9 2 7 -16 9 -17 9 -3 1
9 7 19 14 21 6 3 13 6 13 6 1 1 -1 -10 -4 -24z m35 -12 c-3 -10 -5 -4 -5 12 0
17 2 24 5 18 2 -7 2 -21 0 -30z m68 15 c-2 13 0 20 6 17 5 -4 9 -14 9 -24 0
-13 -8 -18 -26 -18 -18 0 -22 2 -13 8 8 5 9 9 4 9 -6 0 -16 -5 -23 -12 -9 -9
-12 -7 -12 9 0 30 22 35 42 9 l17 -21 -4 23z m51 -1 c-1 -31 -26 -31 -26 0 0
13 6 23 14 23 8 0 13 -9 12 -23z m38 7 c4 -9 4 -19 1 -22 -3 -3 -5 1 -6 9 0 8
-4 6 -9 -6 -8 -18 -9 -17 -9 8 -1 30 13 36 23 11z m64 -9 c-3 -29 -18 -34 -18
-7 0 17 8 32 17 32 1 0 2 -11 1 -25z m27 0 c0 -14 -3 -25 -7 -25 -10 0 -10 34
-1 43 3 4 7 7 7 7 1 0 1 -11 1 -25z m55 -6 c0 -25 -8 -24 -21 4 l-10 22 5 -22
c2 -13 0 -23 -5 -23 -10 0 -12 33 -3 43 11 11 34 -5 34 -24z m60 20 c0 -4 3
-14 6 -23 3 -9 1 -16 -6 -16 -6 0 -9 4 -5 9 3 5 1 12 -5 16 -5 3 -10 -1 -10
-9 0 -9 -7 -16 -15 -16 -15 0 -21 31 -9 43 8 8 44 5 44 -4z m-784 -23 c3 -13
4 -35 2 -47 -2 -20 -9 -24 -38 -25 -53 -1 -60 5 -60 45 0 47 4 51 51 51 32 0
40 -4 45 -24z m614 14 c0 -5 -2 -10 -4 -10 -3 0 -8 5 -11 10 -3 6 -1 10 4 10
6 0 11 -4 11 -10z m-977 -62 c20 -24 15 -55 -15 -80 -27 -24 -44 -23 -73 7
-32 31 -32 58 2 84 30 24 58 20 86 -11z m224 0 c-3 -7 -5 -2 -5 12 0 14 2 19
5 13 2 -7 2 -19 0 -25z m298 -21 c0 -13 -6 -24 -12 -24 -8 0 -13 13 -13 28 0
19 4 27 13 24 6 -3 12 -16 12 -28z m44 -6 c-1 -11 -3 -10 -7 4 l-5 20 -8 -20
c-6 -17 -8 -16 -8 9 -1 24 1 27 14 16 8 -7 14 -20 14 -29z m98 -8 c-3 -10 -5
-2 -5 17 0 19 2 27 5 18 2 -10 2 -26 0 -35z m71 19 c8 -23 7 -29 -4 -29 -9 0
-14 11 -14 29 0 15 2 28 4 28 2 0 8 -13 14 -28z m-268 6 c0 7 5 10 10 7 6 -3
10 -16 10 -28 0 -18 -2 -19 -10 -7 -7 11 -10 11 -10 2 0 -7 -4 -10 -10 -7 -5
3 -10 16 -10 28 0 18 2 19 10 7 7 -11 10 -11 10 -2z m140 -13 c0 -14 -4 -25
-9 -25 -15 0 -23 18 -11 25 6 4 8 11 5 16 -4 5 -1 9 4 9 6 0 11 -11 11 -25z
m35 1 c0 -15 -4 -21 -9 -16 -5 5 -6 16 -3 24 9 22 12 20 12 -8z m60 0 c0 -14
-5 -22 -12 -19 -14 6 -13 24 2 35 6 4 10 8 10 8 0 0 0 -11 0 -24z m-1134 -43
l39 15 0 -49 c0 -59 -8 -64 -85 -54 l-55 6 0 49 0 48 31 -15 c28 -14 35 -14
70 0z m-345 -37 c16 -16 19 -40 4 -31 -5 3 -10 -1 -10 -9 0 -9 -4 -16 -10 -16
-5 0 -10 7 -10 16 0 8 -4 12 -10 9 -14 -9 -12 13 3 30 15 18 16 18 33 1z m964
-36 c11 -11 20 -31 20 -45 0 -30 -32 -65 -61 -65 -15 0 -19 -5 -15 -15 3 -8 2
-15 -3 -15 -5 0 -14 7 -21 15 -9 11 -32 15 -78 15 -77 0 -102 16 -102 66 0 52
27 64 142 64 85 0 101 -3 118 -20z m-2599 -62 c0 -10 2 -10 6 0 6 14 63 17 63
2 0 -5 -7 -10 -15 -10 -20 0 -19 -16 1 -24 8 -3 12 -10 9 -16 -4 -6 -11 -8
-16 -5 -5 4 -9 -1 -9 -9 0 -9 7 -16 15 -16 8 0 15 -4 15 -10 0 -5 -13 -10 -30
-10 -28 0 -30 2 -31 43 -1 25 -4 32 -6 18 -3 -13 -13 -26 -24 -28 -10 -3 -19
-12 -19 -19 0 -8 -4 -14 -10 -14 -5 0 -10 25 -10 55 0 54 0 55 30 55 17 0 30
-5 31 -12z m135 -45 c2 -57 -6 -67 -24 -30 l-11 22 0 -22 c-1 -13 -5 -23 -11
-23 -5 0 -10 25 -10 56 0 54 0 55 28 52 25 -3 27 -6 28 -55z m74 47 c0 -5 -9
-10 -20 -10 -26 0 -26 -16 1 -30 30 -17 22 -54 -13 -58 -16 -2 -28 1 -28 7 0
6 9 11 20 11 11 0 20 3 20 8 0 4 -9 13 -20 20 -19 12 -27 42 -13 55 10 11 53
8 53 -3z m68 -42 c-3 -49 -5 -53 -28 -53 -22 0 -25 5 -28 39 -4 52 3 66 33 66
25 0 26 -2 23 -52z m50 30 l11 -23 0 23 c1 12 7 22 15 22 9 0 14 -13 14 -41 1
-57 8 -59 16 -4 6 34 12 45 25 45 14 0 21 -12 28 -52 l10 -53 2 53 c1 39 5 52
16 52 11 0 15 -12 15 -45 0 -33 4 -45 15 -45 8 0 15 -4 15 -10 0 -5 -20 -10
-45 -10 -33 0 -45 4 -45 15 0 8 -4 15 -10 15 -5 0 -10 -6 -10 -14 0 -10 -10
-14 -30 -14 -22 1 -32 7 -39 27 l-9 26 -1 -27 c-1 -16 -7 -28 -13 -28 -9 0
-12 16 -10 55 4 59 13 68 30 33z m242 -4 c0 -14 4 -23 10 -19 6 3 10 15 10 26
0 10 5 19 10 19 6 0 10 -25 10 -55 0 -30 -4 -55 -10 -55 -5 0 -10 9 -10 20 0
11 -4 20 -10 20 -5 0 -10 -9 -10 -20 0 -11 -7 -20 -15 -20 -12 0 -15 13 -15
55 0 42 3 55 15 55 9 0 15 -10 15 -26z m110 16 c0 -5 -7 -10 -15 -10 -20 0
-19 -16 1 -24 8 -3 12 -10 9 -16 -4 -6 -11 -8 -16 -5 -5 4 -9 0 -9 -8 0 -8 8
-17 19 -20 16 -4 20 3 25 44 5 38 11 49 25 49 14 0 21 -12 28 -52 l10 -53 2
53 c1 39 5 52 16 52 11 0 15 -12 15 -45 0 -33 4 -45 15 -45 8 0 15 -4 15 -10
0 -5 -20 -10 -45 -10 -33 0 -45 4 -45 15 0 8 -4 15 -10 15 -5 0 -10 -7 -10
-15 0 -11 -12 -15 -45 -15 l-45 0 0 55 c0 54 0 55 30 55 17 0 30 -4 30 -10z
m230 -15 c0 -14 5 -25 10 -25 6 0 10 11 10 25 0 14 5 25 10 25 6 0 10 -25 10
-55 0 -30 -4 -55 -10 -55 -5 0 -10 9 -10 20 0 11 -4 20 -10 20 -5 0 -10 -9
-10 -20 0 -12 -7 -20 -16 -20 -13 0 -15 9 -12 49 2 36 0 47 -9 44 -8 -3 -13
-23 -13 -49 0 -24 -4 -44 -9 -44 -13 0 -18 20 -16 58 1 17 -2 32 -7 32 -4 0
-8 5 -8 10 0 6 20 10 45 10 41 0 45 -2 45 -25z m145 -32 c1 -56 -10 -68 -25
-30 l-9 22 0 -22 c-1 -13 -5 -23 -11 -23 -5 0 -10 25 -10 56 0 54 0 55 28 52
26 -3 27 -6 27 -55z m75 47 c0 -5 -9 -10 -20 -10 -11 0 -20 -4 -20 -10 0 -5 7
-10 15 -10 8 0 15 -4 15 -9 0 -5 -7 -11 -15 -15 -22 -8 -18 -26 5 -26 11 0 20
-4 20 -10 0 -5 -13 -10 -30 -10 -30 0 -30 1 -30 55 0 54 0 55 30 55 17 0 30
-4 30 -10z m60 0 c0 -5 -7 -10 -15 -10 -10 0 -15 -11 -15 -35 0 -24 5 -35 15
-35 8 0 15 -4 15 -10 0 -15 -50 -12 -51 3 0 6 -2 21 -4 32 -7 38 6 65 31 65
13 0 24 -4 24 -10z m75 -12 c3 -13 4 -34 1 -48 -2 -14 -5 -29 -5 -33 -1 -5
-13 -7 -28 -5 -25 3 -28 8 -31 42 -4 51 3 66 32 66 18 0 27 -7 31 -22z m70
-35 c1 -56 -10 -68 -25 -30 l-9 22 0 -22 c-1 -13 -5 -23 -11 -23 -5 0 -10 25
-10 56 0 54 0 55 28 52 26 -3 27 -6 27 -55z m75 45 c0 -9 3 -9 12 0 15 15 58
16 58 2 0 -5 -7 -10 -15 -10 -19 0 -20 -19 -1 -26 18 -7 27 -29 20 -49 -7 -17
-49 -20 -59 -5 -3 6 3 10 14 10 26 0 27 11 1 33 -19 16 -20 16 -20 -2 0 -37
-12 -51 -41 -51 -28 0 -29 1 -29 55 0 54 0 55 30 55 17 0 30 -5 30 -12z m1408
-30 c12 -12 17 -134 6 -162 -5 -13 -23 -16 -89 -16 -46 0 -87 4 -90 10 -9 14
-10 154 -1 168 10 16 158 16 174 0z m-1168 -23 c0 -2 -10 -34 -22 -70 l-21
-66 -18 28 c-36 55 -13 108 49 112 6 1 12 -1 12 -4z m1238 -47 c2 -9 -4 -18
-13 -21 -11 -5 -15 0 -15 19 0 28 23 29 28 2z m199 -25 c-3 -10 -5 -2 -5 17 0
19 2 27 5 18 2 -10 2 -26 0 -35z m460 -9 c-9 -9 -37 9 -38 25 -1 9 -4 6 -9 -9
l-8 -25 -1 28 c-1 34 25 37 39 5 9 -21 10 -21 9 -3 -2 34 4 42 8 12 3 -16 3
-31 0 -33z m24 19 c-9 -16 -10 -14 -11 12 0 21 3 26 11 18 8 -8 8 -16 0 -30z
m38 5 c0 -18 -3 -27 -6 -19 -5 11 -7 11 -14 0 -13 -21 -12 7 1 32 15 27 20 24
19 -13z m49 -4 c-2 -10 -11 -20 -21 -22 -12 -3 -17 3 -17 21 0 26 18 41 33 27
5 -4 7 -16 5 -26z m69 -1 c-3 -10 -5 -4 -5 12 0 17 2 24 5 18 2 -7 2 -21 0
-30z m-809 2 c0 -14 -3 -25 -7 -25 -4 0 -8 11 -9 25 -1 14 2 25 7 25 5 0 9
-11 9 -25z m52 8 c0 -7 6 -11 13 -9 6 1 8 1 3 -2 -4 -2 -2 -8 5 -13 9 -5 3 -7
-16 -4 -17 2 -33 4 -37 4 -5 1 -8 10 -8 20 0 14 6 19 20 18 11 -1 20 -7 20
-14z m52 -8 c-2 -14 -6 -25 -8 -25 -2 0 -4 11 -4 25 0 14 4 25 9 25 4 0 6 -11
3 -25z m48 0 c0 -26 -14 -33 -25 -15 -9 14 1 40 15 40 5 0 10 -11 10 -25z
m100 6 c0 -28 -20 -37 -27 -12 -3 12 -10 21 -15 21 -6 0 -8 -10 -5 -21 4 -16
3 -19 -5 -11 -17 17 -1 42 27 42 18 0 25 -5 25 -19z m58 -7 c1 -13 -3 -24 -8
-24 -6 0 -9 5 -7 11 1 6 -4 14 -12 17 -8 3 -11 0 -7 -7 4 -6 3 -11 -3 -11 -5
0 -9 8 -8 19 2 29 42 24 45 -5z m28 1 c0 -14 -4 -25 -8 -25 -4 0 -8 11 -8 25
0 14 4 25 8 25 4 0 8 -11 8 -25z m59 1 c0 -26 -21 -25 -28 2 -3 11 -5 8 -7 -8
-1 -23 -2 -23 -9 -5 -11 26 -5 35 22 35 16 0 22 -6 22 -24z m65 3 c0 -12 -7
-19 -20 -19 -13 0 -20 7 -20 18 0 11 8 18 20 19 14 1 20 -4 20 -18z m69 -1 c0
-21 -1 -22 -8 -4 -7 19 -8 19 -13 -2 -7 -27 -38 -20 -38 9 0 14 7 19 30 19 25
0 30 -4 29 -22z m28 -10 c-3 -7 -5 -2 -5 12 0 14 2 19 5 13 2 -7 2 -19 0 -25z
m206 -10 c-10 -18 -20 -6 -15 19 5 24 6 25 12 8 4 -11 6 -23 3 -27z m27 17 c0
-14 -4 -25 -8 -25 -4 0 -8 11 -8 25 0 14 4 25 8 25 4 0 8 -11 8 -25z m-3590
-54 c0 -44 -2 -48 -22 -47 -20 1 -23 6 -20 35 2 27 23 59 40 61 1 0 2 -22 2
-49z m30 -1 c0 -27 -5 -50 -10 -50 -6 0 -10 22 -9 50 1 28 6 50 11 50 4 0 8
-22 8 -50z m129 -2 c-2 -52 -2 -53 -8 -13 -4 22 -5 46 -3 53 8 25 12 11 11
-40z m321 2 c0 -42 -3 -50 -19 -50 -33 0 -41 44 -13 78 26 33 32 27 32 -28z
m470 40 c-10 -6 -11 -10 -2 -10 8 0 11 -14 10 -42 -1 -37 -2 -39 -5 -10 -2 17
-8 32 -14 32 -5 0 -10 -15 -10 -32 -1 -32 -2 -32 -9 7 -8 43 1 65 29 65 14 0
14 -2 1 -10z m290 -38 c0 -44 -2 -49 -22 -47 -17 1 -24 9 -26 28 -5 38 -32 35
-32 -4 0 -16 -4 -28 -8 -25 -4 3 -6 21 -4 40 3 27 9 36 23 36 31 0 34 -4 31
-32 -2 -18 1 -28 10 -28 10 0 13 12 11 40 -1 22 2 40 8 40 5 0 9 -22 9 -48z
m-1393 16 l10 -23 7 23 c4 12 12 22 17 22 12 0 12 -77 -1 -85 -5 -3 -10 2 -10
13 0 10 -7 19 -15 19 -8 0 -15 -6 -15 -14 0 -7 -4 -13 -10 -13 -5 0 -10 18
-10 40 0 44 12 52 27 18z m798 -26 c1 -52 -17 -51 -26 1 -6 38 -2 50 15 44 5
-2 10 -22 11 -45z m-701 21 c5 -11 1 -22 -9 -29 -12 -9 -13 -13 -3 -17 7 -2
10 -8 6 -12 -15 -15 -38 5 -38 33 0 16 3 32 7 35 12 13 31 7 37 -10z m136 7
c0 -5 -4 -10 -10 -10 -14 0 -12 -38 3 -43 6 -2 9 -7 6 -11 -3 -3 -14 -4 -23 0
-16 6 -23 54 -9 67 10 11 33 8 33 -3z m50 -28 c0 -31 -4 -38 -20 -39 -25 -2
-27 32 -2 46 16 10 16 10 0 11 -10 0 -18 5 -18 10 0 6 9 10 20 10 16 0 20 -7
20 -38z m100 28 c0 -5 -5 -10 -11 -10 -7 0 -9 -10 -7 -25 3 -14 1 -28 -3 -31
-5 -3 -9 13 -9 35 0 30 4 41 15 41 8 0 15 -4 15 -10z m48 -18 c2 -15 -2 -22
-15 -23 -17 -1 -17 -2 0 -6 9 -2 17 -9 17 -14 0 -6 -8 -9 -17 -7 -13 2 -19 14
-21 41 -3 33 -1 38 15 35 10 -2 19 -13 21 -26z m52 18 c0 -5 -4 -10 -10 -10
-14 0 -12 -38 3 -43 6 -2 9 -8 5 -12 -15 -15 -38 5 -38 33 0 16 3 32 7 35 10
11 33 8 33 -3z m51 3 c0 -5 2 -16 4 -25 4 -22 -19 -53 -33 -44 -13 8 -16 58
-5 69 9 9 33 9 34 0z m49 -3 c0 -5 -4 -10 -9 -10 -6 0 -12 -15 -14 -32 -3 -29
-4 -27 -5 10 -2 31 2 42 13 42 8 0 15 -4 15 -10z m100 0 c0 -5 -8 -10 -17 -10
-15 0 -15 -1 2 -14 11 -8 16 -19 12 -30 -7 -17 -37 -23 -37 -6 0 6 8 10 17 10
15 0 15 1 -2 14 -11 8 -16 19 -12 30 7 17 37 23 37 6z m75 -30 c0 -25 -5 -36
-18 -38 -25 -5 -33 26 -11 43 18 14 18 14 1 15 -10 0 -15 5 -12 11 15 23 40 4
40 -31z m98 5 c4 -15 5 -13 6 8 0 15 6 27 12 27 6 0 8 -8 5 -17 -2 -10 -8 -34
-12 -53 l-7 -35 -13 35 c-15 42 -18 78 -5 65 5 -6 11 -19 14 -30z m75 1 c4
-35 -11 -54 -31 -38 -19 16 -10 74 12 70 9 -2 17 -15 19 -32z m34 2 l1 -33 4
33 c6 46 23 40 23 -9 0 -36 -2 -40 -22 -37 -19 2 -24 10 -26 41 -2 21 1 37 7
37 6 0 12 -15 13 -32z m64 16 c-3 -9 -6 -27 -6 -40 0 -13 -4 -24 -10 -24 -5 0
-10 18 -10 40 0 30 4 40 16 40 11 0 14 -5 10 -16z m142 -26 c-1 -37 -2 -39 -5
-10 -2 17 -8 32 -13 32 -5 0 -11 -15 -13 -32 -3 -29 -4 -27 -5 10 -2 36 1 42
18 42 17 0 20 -6 18 -42z m62 22 c0 -10 -8 -24 -17 -29 -17 -10 -17 -10 0 -11
9 0 17 -6 17 -14 0 -18 -30 -30 -44 -16 -7 7 -2 10 15 11 15 1 18 3 7 6 -17 4
-33 47 -23 63 11 18 45 11 45 -10z m54 3 c5 -11 1 -22 -9 -29 -12 -9 -13 -13
-3 -17 7 -2 10 -8 6 -12 -15 -15 -38 5 -38 33 0 16 3 32 7 35 12 13 31 7 37
-10z m166 -16 c0 -28 -26 -67 -45 -67 -3 0 -5 23 -5 50 0 47 2 50 25 50 22 0
25 -4 25 -33z m50 23 c0 -5 -8 -10 -17 -10 -17 -1 -17 -2 1 -15 11 -8 16 -21
13 -30 -7 -17 -37 -21 -37 -5 0 6 5 10 12 10 9 0 9 3 0 12 -19 19 -15 48 8 48
11 0 20 -4 20 -10z m918 -20 c13 -12 22 -33 22 -50 0 -17 9 -39 20 -50 40 -40
21 -81 -62 -128 l-38 -21 -1 72 c0 40 -2 79 -4 87 -1 8 -6 36 -10 63 -7 47 -7
47 22 47 16 0 39 -9 51 -20z m118 -15 c14 -13 14 -17 0 -31 -15 -14 -17 -14
-32 0 -12 13 -13 18 -2 30 16 19 16 19 34 1z m-906 -37 c0 -6 -7 -50 -16 -97
-9 -48 -13 -102 -10 -124 l7 -39 -33 20 c-48 30 -80 88 -74 136 5 45 32 85 67
103 30 16 59 16 59 1z m241 -93 c42 15 50 11 22 -12 -16 -13 -15 -14 10 -8 37
8 27 -10 -16 -30 -18 -9 -24 -13 -14 -10 76 21 90 13 24 -12 l-32 -13 35 6
c43 8 30 -12 -18 -25 -40 -12 -51 1 -57 70 -2 30 -2 46 1 37 5 -15 9 -15 45
-3z m978 -49 c18 -22 10 -168 -9 -173 -12 -4 -12 -2 -2 5 9 6 12 32 10 88 l-3
79 -74 3 c-42 2 -79 -2 -85 -8 -10 -10 -10 -149 0 -159 3 -3 29 -8 57 -12 l52
-6 -46 -2 c-72 -2 -84 13 -84 104 0 56 4 78 15 85 24 16 156 12 169 -4z m-19
-47 c0 -38 -27 -70 -41 -48 -5 8 -9 29 -9 47 0 28 3 32 25 32 21 0 25 -5 25
-31z m90 7 c0 -14 -5 -28 -10 -31 -13 -8 -24 20 -16 40 9 24 26 17 26 -9z m31
-20 c5 -6 7 -1 4 12 -2 12 0 22 6 22 10 0 13 -33 3 -43 -13 -13 -34 7 -33 32
1 20 2 22 6 6 3 -11 9 -24 14 -29z m197 28 c4 2 7 -6 7 -19 0 -14 -5 -21 -12
-18 -7 3 -13 17 -12 32 0 14 3 20 6 13 2 -6 8 -10 11 -8z m217 -2 c-2 -3 0
-11 6 -18 7 -8 6 -14 -2 -20 -7 -4 -9 -3 -6 3 4 6 -1 17 -10 24 -15 12 -16 11
-11 -9 4 -12 2 -20 -3 -16 -5 3 -9 13 -10 22 0 14 -2 13 -9 -3 -8 -19 -9 -19
-9 2 -1 12 5 23 12 26 15 5 50 -4 42 -11z m55 -12 c0 -31 -16 -41 -26 -15 -5
13 11 45 22 45 2 0 4 -13 4 -30z m50 3 c0 -21 -3 -24 -9 -14 -5 8 -7 20 -4 28
8 21 13 15 13 -14z m21 -10 c-9 -16 -10 -14 -11 12 0 21 3 26 11 18 8 -8 8
-16 0 -30z m141 -15 c-7 -7 -14 -3 -21 10 -9 17 -8 23 6 31 14 8 19 6 21 -11
2 -11 -1 -25 -6 -30z m-632 22 c0 -11 -4 -20 -9 -20 -6 0 -9 9 -8 20 1 11 5
20 9 20 4 0 8 -9 8 -20z m46 9 c3 -6 1 -16 -5 -22 -8 -8 -11 -6 -11 9 0 16 -2
16 -13 -5 -6 -14 -19 -26 -27 -28 -10 -3 -9 -1 3 7 9 6 17 20 17 30 0 21 24
27 36 9z m24 -8 c0 -11 -4 -22 -9 -25 -5 -3 -8 5 -7 19 1 29 16 34 16 6z m38
12 c-9 -2 -15 -10 -12 -18 3 -7 2 -15 -3 -18 -4 -3 -9 6 -9 19 -2 19 3 24 20
23 16 -1 17 -2 4 -6z m89 -25 c-3 -7 -5 -2 -5 12 0 14 2 19 5 13 2 -7 2 -19 0
-25z m29 8 c0 -14 -4 -22 -8 -20 -4 3 -8 14 -8 25 0 10 4 19 8 19 4 0 8 -11 8
-24z m42 2 c-4 -28 -24 -34 -31 -9 -6 22 0 31 20 31 9 0 13 -8 11 -22z m32 -3
c0 -14 -3 -25 -7 -25 -5 0 -8 11 -8 25 0 14 3 25 8 25 4 0 7 -11 7 -25z m146
1 c0 -14 -4 -22 -8 -20 -4 3 -8 14 -8 25 0 10 4 19 8 19 4 0 8 -11 8 -24z
m104 9 c0 -8 -6 -15 -12 -15 -9 0 -8 -4 2 -10 9 -6 10 -10 3 -10 -6 0 -15 5
-19 11 -4 8 -9 7 -15 -2 -10 -16 -12 1 -3 25 8 20 44 21 44 1z m46 -9 c0 -14
-4 -22 -8 -20 -4 3 -8 14 -8 25 0 10 4 19 8 19 4 0 8 -11 8 -24z m-829 -11
c-4 -8 -2 -17 3 -20 6 -4 10 -17 10 -31 0 -21 -5 -24 -36 -24 -34 0 -35 1 -32
33 2 23 8 31 19 29 9 -1 19 4 23 13 3 8 8 15 12 15 3 0 4 -7 1 -15z m350 -7
c-3 -8 -6 -5 -6 6 -1 11 2 17 5 13 3 -3 4 -12 1 -19z m-689 -27 c8 -1 27 -15
43 -32 35 -37 38 -79 9 -126 -26 -43 -50 -54 -139 -63 -42 -4 -86 -11 -98 -15
-21 -7 -23 -4 -23 34 0 35 7 51 43 94 81 97 104 117 129 113 12 -3 29 -5 36
-5z m475 -23 c-4 -20 -3 -21 7 -5 14 22 30 22 30 -2 0 -13 -7 -18 -25 -18 -20
0 -25 5 -25 23 0 13 4 24 9 24 5 0 7 -10 4 -22z m117 -9 c0 -10 -6 -19 -14
-19 -19 0 -30 31 -14 41 17 10 28 2 28 -22z m96 6 c-1 -29 -16 -35 -16 -7 0
16 8 32 16 32 1 0 1 -11 0 -25z m48 9 c9 -8 16 -20 16 -26 0 -6 -10 0 -21 13
l-22 24 6 -22 c3 -13 1 -23 -4 -23 -10 0 -12 33 -2 43 9 9 9 9 27 -9z m61 -9
c0 -14 -3 -25 -7 -25 -10 0 -10 34 -1 43 3 4 7 7 7 7 1 0 1 -11 1 -25z m39 9
c4 -10 2 -13 -6 -8 -8 5 -9 2 -5 -9 3 -10 2 -17 -3 -17 -11 0 -14 33 -3 43 9
10 10 9 17 -9z m-285 -34 c0 -10 -3 -8 -9 5 -12 27 -12 43 0 25 5 -8 9 -22 9
-30z m71 36 c0 -3 -4 -8 -10 -11 -5 -3 -10 -1 -10 4 0 6 5 11 10 11 6 0 10 -2
10 -4z m17 -28 c-3 -7 -5 -2 -5 12 0 14 2 19 5 13 2 -7 2 -19 0 -25z m133 10
c0 -19 -2 -20 -10 -8 -13 19 -13 30 0 30 6 0 10 -10 10 -22z m-909 -11 c-10
-9 -11 -8 -5 6 3 10 9 15 12 12 3 -3 0 -11 -7 -18z m-575 -9 c-3 -13 -6 -29
-6 -37 0 -10 -8 -7 -25 9 -36 34 -34 39 29 49 4 0 6 -9 2 -21z m-166 2 c0 -5
7 -10 15 -10 19 0 19 -7 1 -26 -18 -18 -24 -18 -42 1 -13 12 -13 17 -2 29 15
18 28 20 28 6z m1270 -30 c0 -5 -5 -10 -11 -10 -5 0 -7 5 -4 10 3 6 8 10 11
10 2 0 4 -4 4 -10z m-661 -74 c19 -20 21 -28 12 -45 -7 -12 -16 -21 -21 -21
-6 0 -10 -9 -10 -20 0 -22 -8 -24 -44 -10 -15 5 -28 20 -32 36 -6 23 -1 32 27
55 19 16 37 29 40 29 3 0 16 -11 28 -24z"/>
<path d="M191 1148 c-1 -25 2 -27 39 -26 22 0 40 5 40 10 0 5 -10 9 -22 8 -38
-3 -46 -1 -51 18 -3 11 -5 7 -6 -10z"/>
<path d="M315 1130 c3 -5 10 -10 16 -10 5 0 9 5 9 10 0 6 -7 10 -16 10 -8 0
-12 -4 -9 -10z"/>
<path d="M320 1099 c0 -5 5 -7 10 -4 6 3 10 8 10 11 0 2 -4 4 -10 4 -5 0 -10
-5 -10 -11z"/>
<path d="M228 1053 c5 -23 7 -25 10 -8 2 11 9 23 16 27 6 5 3 8 -10 8 -18 0
-20 -4 -16 -27z"/>
<path d="M1992 1072 c-8 -5 1 -8 22 -8 19 1 32 4 29 9 -6 9 -35 9 -51 -1z"/>
<path d="M2097 1073 c-3 -5 8 -8 23 -8 15 0 26 3 23 8 -2 4 -13 7 -23 7 -10 0
-21 -3 -23 -7z"/>
<path d="M1990 1046 c0 -9 30 -14 35 -6 4 6 -3 10 -14 10 -12 0 -21 -2 -21 -4z"/>
<path d="M2110 1040 c0 -5 4 -10 9 -10 6 0 13 5 16 10 3 6 -1 10 -9 10 -9 0
-16 -4 -16 -10z"/>
<path d="M2025 960 c-4 -6 12 -10 40 -10 28 0 44 4 40 10 -3 6 -21 10 -40 10
-19 0 -37 -4 -40 -10z"/>
<path d="M3641 984 c0 -11 3 -14 6 -6 3 7 2 16 -1 19 -3 4 -6 -2 -5 -13z"/>
<path d="M2850 981 c0 -10 19 -25 25 -20 1 2 -3 10 -11 17 -8 7 -14 8 -14 3z"/>
<path d="M2820 935 c0 -10 11 -15 35 -15 24 0 35 5 35 15 0 10 -11 15 -35 15
-24 0 -35 -5 -35 -15z"/>
<path d="M2480 925 c0 -8 -9 -15 -20 -15 -11 0 -20 -4 -20 -10 0 -5 7 -10 15
-10 9 0 15 -9 15 -22 1 -21 2 -22 14 -5 7 9 22 17 32 17 18 1 18 1 2 14 -10 7
-18 21 -18 30 0 9 -4 16 -10 16 -5 0 -10 -7 -10 -15z"/>
<path d="M80 700 c0 -11 5 -20 10 -20 6 0 10 9 10 20 0 11 -4 20 -10 20 -5 0
-10 -9 -10 -20z"/>
<path d="M220 705 c0 -8 5 -15 10 -15 6 0 10 7 10 15 0 8 -4 15 -10 15 -5 0
-10 -7 -10 -15z"/>
<path d="M360 685 c0 -19 5 -35 10 -35 6 0 10 16 10 35 0 19 -4 35 -10 35 -5
0 -10 -16 -10 -35z"/>
<path d="M1140 705 c0 -8 5 -15 10 -15 6 0 10 7 10 15 0 8 -4 15 -10 15 -5 0
-10 -7 -10 -15z"/>
<path d="M1340 685 c0 -19 5 -35 10 -35 6 0 10 16 10 35 0 19 -4 35 -10 35 -5
0 -10 -16 -10 -35z"/>
<path d="M1420 705 c0 -8 5 -15 10 -15 6 0 10 7 10 15 0 8 -4 15 -10 15 -5 0
-10 -7 -10 -15z"/>
<path d="M1490 685 c0 -19 5 -35 10 -35 6 0 10 16 10 35 0 19 -4 35 -10 35 -5
0 -10 -16 -10 -35z"/>
<path d="M3751 614 c0 -11 3 -14 6 -6 3 7 2 16 -1 19 -3 4 -6 -2 -5 -13z"/>
<path d="M3171 614 c0 -11 3 -14 6 -6 3 7 2 16 -1 19 -3 4 -6 -2 -5 -13z"/>
<path d="M3271 614 c0 -11 3 -14 6 -6 3 7 2 16 -1 19 -3 4 -6 -2 -5 -13z"/>
<path d="M3531 614 c0 -11 3 -14 6 -6 3 7 2 16 -1 19 -3 4 -6 -2 -5 -13z"/>
<path d="M210 550 c0 -11 4 -20 9 -20 6 0 9 9 8 20 -1 11 -5 20 -9 20 -4 0 -8
-9 -8 -20z"/>
<path d="M690 548 c0 -19 2 -20 10 -8 13 19 13 30 0 30 -5 0 -10 -10 -10 -22z"/>
<path d="M590 550 c0 -11 5 -20 10 -20 6 0 10 9 10 20 0 11 -4 20 -10 20 -5 0
-10 -9 -10 -20z"/>
<path d="M990 550 c0 -11 5 -20 10 -20 6 0 10 9 10 20 0 11 -4 20 -10 20 -5 0
-10 -9 -10 -20z"/>
<path d="M1345 570 c-3 -5 -1 -10 4 -10 6 0 11 5 11 10 0 6 -2 10 -4 10 -3 0
-8 -4 -11 -10z"/>
<path d="M1512 550 c0 -14 2 -19 5 -12 2 6 2 18 0 25 -3 6 -5 1 -5 -13z"/>
<path d="M2992 320 c0 -14 2 -19 5 -12 2 6 2 18 0 25 -3 6 -5 1 -5 -13z"/>
<path d="M3711 314 c0 -11 3 -14 6 -6 3 7 2 16 -1 19 -3 4 -6 -2 -5 -13z"/>
<path d="M3341 314 c0 -11 3 -14 6 -6 3 7 2 16 -1 19 -3 4 -6 -2 -5 -13z"/>
<path d="M2820 255 c0 -8 4 -15 9 -15 5 0 14 7 21 15 10 13 9 15 -9 15 -12 0
-21 -6 -21 -15z"/>
<path d="M3091 244 c0 -11 3 -14 6 -6 3 7 2 16 -1 19 -3 4 -6 -2 -5 -13z"/>
<path d="M50 270 l0 -40 40 0 40 0 0 40 0 40 -40 0 -40 0 0 -40z m70 0 c0 -27
-3 -30 -30 -30 -27 0 -30 3 -30 30 0 27 3 30 30 30 27 0 30 -3 30 -30z"/>
<path d="M70 276 c0 -15 24 -28 34 -19 13 14 5 33 -14 33 -11 0 -20 -6 -20
-14z"/>
<path d="M196 285 c-18 -23 -20 -24 -33 -7 -12 15 -13 13 -10 -20 3 -20 0 -41
-6 -47 -8 -8 -6 -11 8 -11 10 0 15 3 12 7 -4 3 -2 12 4 20 6 7 8 13 3 13 -5 0
2 7 14 16 33 23 38 11 12 -25 -11 -17 -18 -35 -15 -41 10 -15 25 -12 19 4 -3
8 0 23 6 33 10 16 11 15 6 -6 -3 -14 -1 -20 4 -15 12 12 21 86 10 79 -5 -3
-10 2 -12 10 -2 12 -7 10 -22 -10z"/>
<path d="M270 270 l0 -40 45 0 45 0 0 40 0 40 -45 0 -45 0 0 -40z m80 0 c0
-28 -3 -30 -35 -30 -32 0 -35 2 -35 30 0 28 3 30 35 30 32 0 35 -2 35 -30z"/>
<path d="M300 272 c0 -10 7 -19 15 -19 8 0 15 9 15 19 0 10 -7 18 -15 18 -8 0
-15 -8 -15 -18z"/>
<path d="M252 207 c2 -38 0 -47 -12 -44 -8 2 -14 9 -12 15 1 9 -2 9 -18 0 -17
-11 -18 -14 -4 -30 9 -9 13 -22 9 -27 -3 -7 2 -11 14 -11 12 0 21 -5 21 -11 0
-6 -7 -8 -16 -5 -9 3 -27 9 -40 12 -24 6 -34 24 -13 24 7 0 6 8 -4 23 -9 13
-23 21 -35 19 -16 -2 -20 2 -18 22 2 14 -1 23 -6 20 -6 -4 -8 -17 -5 -31 4
-22 2 -24 -27 -18 -40 8 -14 -9 29 -19 22 -5 26 -4 15 4 -12 8 -11 10 6 10 26
0 34 -8 27 -26 -3 -8 -17 -14 -31 -14 -32 0 -24 -9 12 -12 19 -2 25 -7 21 -18
-5 -12 -4 -13 6 -2 18 17 29 15 29 -5 0 -15 2 -16 10 -3 5 8 10 10 10 4 0 -7
8 -11 17 -10 10 0 19 -9 23 -24 5 -22 12 -25 55 -27 35 -2 44 0 30 6 -17 8
-18 10 -4 16 11 4 17 19 17 44 1 35 -1 38 -24 33 -20 -4 -24 0 -24 22 0 23 2
25 25 16 14 -5 25 -6 25 -2 0 13 -57 30 -71 21 -12 -7 -12 -9 0 -9 8 0 11 -3
8 -6 -13 -13 -36 18 -35 47 1 16 -2 33 -7 37 -4 4 -6 -14 -3 -41z m44 -66
c-10 -15 -45 -19 -56 -7 -7 10 -1 13 26 14 19 1 32 -2 30 -7z m4 -46 c0 -8 -9
-15 -20 -15 -11 0 -20 7 -20 15 0 8 9 15 20 15 11 0 20 -7 20 -15z m32 -22
c-1 -2 -6 -13 -11 -25 -7 -19 -8 -14 -8 21 0 36 2 40 10 25 6 -11 10 -20 9
-21z m-36 -40 c-11 -11 -19 6 -11 24 8 17 8 17 12 0 3 -10 2 -21 -1 -24z"/>
<path d="M50 216 c0 -9 30 -14 35 -6 4 6 -3 10 -14 10 -12 0 -21 -2 -21 -4z"/>
<path d="M319 209 c14 -5 28 -6 32 -2 4 4 -6 9 -24 10 -30 1 -31 1 -8 -8z"/>
<path d="M54 138 c-4 -7 -3 -8 4 -4 7 4 12 1 12 -8 0 -16 12 -21 23 -9 8 7
-11 33 -24 33 -4 0 -11 -5 -15 -12z"/>
<path d="M50 60 l0 -40 40 0 40 0 0 40 0 40 -40 0 -40 0 0 -40z m70 0 c0 -27
-3 -30 -30 -30 -27 0 -30 3 -30 30 0 27 3 30 30 30 27 0 30 -3 30 -30z"/>
<path d="M70 60 c0 -13 7 -20 20 -20 13 0 20 7 20 20 0 13 -7 20 -20 20 -13 0
-20 -7 -20 -20z"/>
<path d="M150 39 c0 -11 4 -18 10 -14 5 3 7 12 3 20 -7 21 -13 19 -13 -6z"/>
<path d="M170 50 c0 -5 5 -10 11 -10 5 0 7 -5 4 -11 -5 -7 3 -9 21 -7 20 2 30
9 32 23 2 13 0 16 -5 8 -6 -8 -14 -9 -23 -3 -20 13 -40 12 -40 0z"/>
</g>
</svg>
