<?xml version="1.0" encoding="UTF-8"?>
<svg version="1.1" xmlns="http://www.w3.org/2000/svg" width="327" height="126">
<path d="M0 0 C2.40537139 -0.01662699 4.81069206 -0.04400422 7.21582031 -0.08203125 C10.69134014 -0.136633 14.16571144 -0.15864044 17.64160156 -0.17333984 C18.71769684 -0.19600922 19.79379211 -0.21867859 20.90249634 -0.24203491 C28.31186532 -0.22094725 28.31186532 -0.22094725 31.51074219 2.52319336 C31.99478516 3.45607178 32.47882813 4.3889502 32.97753906 5.35009766 C33.70046143 6.71823608 33.70046143 6.71823608 34.43798828 8.11401367 C34.88158691 9.10071045 35.32518555 10.08740723 35.78222656 11.10400391 C36.28367187 12.20679688 36.78511719 13.30958984 37.30175781 14.44580078 C37.81351562 15.58984375 38.32527344 16.73388672 38.85253906 17.91259766 C39.86881599 20.16478169 40.88703841 22.41608887 41.90722656 24.66650391 C42.40577148 25.77525879 42.90431641 26.88401367 43.41796875 28.02636719 C45.4309985 32.31650291 47.67522334 36.47050164 49.97802734 40.61157227 C51.73304587 45.42008296 50.20905022 49.01755794 48.22753906 53.50366211 C47.48537857 55.07728894 46.73493367 56.64702741 45.97753906 58.21337891 C45.58179688 59.04596725 45.18605469 59.8785556 44.77832031 60.7363739 C43.94459123 62.48697691 43.10727991 64.23587785 42.26660156 65.9831543 C40.97511125 68.66764411 39.69415281 71.35695743 38.41503906 74.04736328 C37.60314219 75.74882308 36.79066267 77.45000501 35.97753906 79.15087891 C35.59210938 79.95809891 35.20667969 80.76531891 34.80957031 81.59700012 C32.09531162 87.2323251 32.09531162 87.2323251 30.97753906 88.35009766 C27.89843381 88.47611052 24.84299513 88.53879366 21.76269531 88.55322266 C20.37358192 88.56177277 20.37358192 88.56177277 18.95640564 88.57049561 C16.99349109 88.57996017 15.03056055 88.58648534 13.06762695 88.59033203 C10.05619783 88.60004554 7.04544866 88.6310583 4.03417969 88.66259766 C2.13118897 88.66912651 0.22819335 88.67437744 -1.67480469 88.67822266 C-2.58004379 88.69056946 -3.4852829 88.70291626 -4.41795349 88.71563721 C-5.25544632 88.71263611 -6.09293915 88.70963501 -6.95581055 88.70654297 C-7.69447861 88.7101886 -8.43314667 88.71383423 -9.19419861 88.71759033 C-11.02246094 88.35009766 -11.02246094 88.35009766 -13.02246094 85.35009766 C-13.59272689 83.11628753 -14.08439051 80.86202148 -14.53027344 78.60009766 C-14.66061981 77.94557617 -14.79096619 77.29105469 -14.92526245 76.61669922 C-15.19895634 75.23548881 -15.46940306 73.85363151 -15.73681641 72.47119141 C-16.14624447 70.35638108 -16.56589605 68.24379981 -16.98730469 66.13134766 C-19.02246094 55.80959382 -19.02246094 55.80959382 -19.02246094 52.35009766 C-16.30223016 50.98998227 -14.05627284 51.14385456 -11.02246094 51.10009766 C-9.94996094 51.07431641 -8.87746094 51.04853516 -7.77246094 51.02197266 C-6.86496094 51.13025391 -5.95746094 51.23853516 -5.02246094 51.35009766 C-1.16669066 57.13375308 -3.06097898 64.73990917 -4.02246094 71.35009766 C0.92753906 71.35009766 5.87753906 71.35009766 10.97753906 71.35009766 C10.88214844 70.15771484 10.78675781 68.96533203 10.68847656 67.73681641 C10.57592338 66.1704513 10.46397573 64.60404259 10.35253906 63.03759766 C10.28808594 62.25191406 10.22363281 61.46623047 10.15722656 60.65673828 C10.10566406 59.89941406 10.05410156 59.14208984 10.00097656 58.36181641 C9.9486084 57.66531982 9.89624023 56.96882324 9.84228516 56.2512207 C9.97753906 54.35009766 9.97753906 54.35009766 11.97753906 51.35009766 C15.23535156 51.05712891 15.23535156 51.05712891 19.10253906 51.16259766 C21.02453125 51.20320313 21.02453125 51.20320313 22.98535156 51.24462891 C23.97277344 51.27943359 24.96019531 51.31423828 25.97753906 51.35009766 C26.63753906 47.39009766 27.29753906 43.43009766 27.97753906 39.35009766 C22.36753906 39.35009766 16.75753906 39.35009766 10.97753906 39.35009766 C10.97753906 33.41009766 10.97753906 27.47009766 10.97753906 21.35009766 C6.02753906 21.35009766 1.07753906 21.35009766 -4.02246094 21.35009766 C-3.69246094 22.01009766 -3.36246094 22.67009766 -3.02246094 23.35009766 C-2.92530751 25.68177983 -2.89267876 28.01639723 -2.89746094 30.35009766 C-2.89359375 32.23728516 -2.89359375 32.23728516 -2.88964844 34.16259766 C-3.02246094 37.35009766 -3.02246094 37.35009766 -4.02246094 39.35009766 C-9.30246094 39.35009766 -14.58246094 39.35009766 -20.02246094 39.35009766 C-21.64096154 35.30384616 -22.65616108 31.87986478 -23.53027344 27.65869141 C-23.79453125 26.38445313 -24.05878906 25.11021484 -24.33105469 23.79736328 C-24.46495605 23.13905518 -24.59885742 22.48074707 -24.73681641 21.80249023 C-25.14718092 19.78897159 -25.56671804 17.77751863 -25.98730469 15.76611328 C-28.02246094 5.86603054 -28.02246094 5.86603054 -28.02246094 1.35009766 C-18.90382318 -0.58558226 -9.27478815 0.04704787 0 0 Z " fill="#0183CC" transform="translate(114.0224609375,19.64990234375)"/>
<path d="M0 0 C0.66 0 1.32 0 2 0 C2.50798327 1.93033643 3.01596266 3.86067389 3.52392578 5.79101562 C3.97145302 7.49155328 4.41904562 9.19207373 4.86669922 10.89257812 C6.02591914 15.29648131 7.18418225 19.70063033 8.33984375 24.10546875 C8.55398926 24.92088135 8.76813477 25.73629395 8.98876953 26.57641602 C9.41099653 28.18479951 9.83255229 29.79335937 10.25341797 31.40209961 C11.60336394 36.54735003 13.01532275 41.67076337 14.51953125 46.7734375 C15 49 15 49 15 54 C4.44 54 -6.12 54 -17 54 C-16.31337274 47.82035467 -15.86415435 43.84639121 -13.890625 38.3046875 C-13.46773193 37.10038086 -13.04483887 35.89607422 -12.60913086 34.65527344 C-12.15627086 33.39511629 -11.70322432 32.13502617 -11.25 30.875 C-10.79139789 29.57880431 -10.33380081 28.28225262 -9.87719727 26.98535156 C-8.98715478 24.45817811 -8.09362726 21.93235169 -7.19775391 19.40722656 C-5.32683558 14.08506264 -3.57727143 8.72623345 -1.83984375 3.359375 C-1 1 -1 1 0 0 Z " fill="#0283CC" transform="translate(67,39)"/>
<path d="M0 0 C1.62490954 -0.02698189 3.24994633 -0.04638757 4.875 -0.0625 C5.77992188 -0.07410156 6.68484375 -0.08570313 7.6171875 -0.09765625 C10 0 10 0 12 1 C12.4140625 3.50390625 12.4140625 3.50390625 12.625 6.5625 C12.69976562 7.57441406 12.77453125 8.58632813 12.8515625 9.62890625 C12.90054688 10.41136719 12.94953125 11.19382812 13 12 C13.66 10.35 14.32 8.7 15 7 C16.95803507 6.94610913 18.91648909 6.90725783 20.875 6.875 C22.51082031 6.84019531 22.51082031 6.84019531 24.1796875 6.8046875 C27 7 27 7 29 9 C29.31275122 13.7694561 29.48972065 17.7674749 27 22 C24.04722026 24.06694582 22.76276389 24 19 24 C18.34 26.31 17.68 28.62 17 31 C15.02 31 13.04 31 11 31 C11 28.36 11 25.72 11 23 C9.02 23 7.04 23 5 23 C4.67 21.68 4.34 20.36 4 19 C0.72226496 19.75150023 0.72226496 19.75150023 -1 23 C-4.625 23.1875 -4.625 23.1875 -8 23 C-5.81659819 15.13620323 -3.00714974 7.58324716 0 0 Z M4 8 C3.67 9.65 3.34 11.3 3 13 C3.66 12.34 4.32 11.68 5 11 C4.67 10.01 4.34 9.02 4 8 Z M21 13 C20.67 14.32 20.34 15.64 20 17 C20.66 17 21.32 17 22 17 C21.67 15.68 21.34 14.36 21 13 Z " fill="#2E8DC0" transform="translate(179,51)"/>
<path d="M0 0 C1.98 0 3.96 0 6 0 C6.0739439 4.65846585 6.04332233 9.12866301 5.4375 13.75 C5.01922222 17.06717516 5.05487699 19.7445763 6 23 C2.24369955 25.5042003 1.2847417 24.77125351 -3 24 C-4.2684375 24.3403125 -4.2684375 24.3403125 -5.5625 24.6875 C-8 25 -8 25 -10.8125 23.0625 C-11.534375 22.381875 -12.25625 21.70125 -13 21 C-13.350625 21.474375 -13.70125 21.94875 -14.0625 22.4375 C-16.95605843 24.77101487 -19.3333943 24.87356532 -23 25 C-25.9375 23.5625 -25.9375 23.5625 -28 22 C-27.66257669 13.1595092 -27.66257669 13.1595092 -25.5 9.375 C-21.7459367 7.31026518 -18.19180622 7.67755337 -14 8 C-13.34 9.32 -12.68 10.64 -12 12 C-11.29875 11.34 -10.5975 10.68 -9.875 10 C-6.56539771 7.69766797 -4.93774177 7.63369844 -1 8 C-1.020625 7.05125 -1.04125 6.1025 -1.0625 5.125 C-1 2 -1 2 0 0 Z M-4 14 C-4.33 15.32 -4.66 16.64 -5 18 C-4.34 18 -3.68 18 -3 18 C-2.67 16.68 -2.34 15.36 -2 14 C-2.66 14 -3.32 14 -4 14 Z " fill="#1D93D3" transform="translate(277,50)"/>
<path d="M0 0 C0.33 2.31 0.66 4.62 1 7 C1.66 7 2.32 7 3 7 C3.268125 6.236875 3.53625 5.47375 3.8125 4.6875 C5.60854093 0.6227758 5.60854093 0.6227758 8 -1 C11.1875 -1.1875 11.1875 -1.1875 14 -1 C15.32196493 1.64392986 14.79539354 2.90802036 14.22265625 5.7890625 C14.03896484 6.73007812 13.85527344 7.67109375 13.66601562 8.640625 C13.46685547 9.62546875 13.26769531 10.6103125 13.0625 11.625 C12.86720703 12.61757812 12.67191406 13.61015625 12.47070312 14.6328125 C11.98639691 17.08978064 11.49592303 19.54535485 11 22 C8.69 22 6.38 22 4 22 C3.67 20.35 3.34 18.7 3 17 C2.195625 17.020625 1.39125 17.04125 0.5625 17.0625 C-2 17 -2 17 -3 16 C-3.66 17.98 -4.32 19.96 -5 22 C-6.98 22 -8.96 22 -11 22 C-12.46151756 17.61544731 -11.41814436 13.87127301 -10.6875 9.375 C-10.55666016 8.49070312 -10.42582031 7.60640625 -10.29101562 6.6953125 C-10.15759766 5.85484375 -10.02417969 5.014375 -9.88671875 4.1484375 C-9.76514404 3.37677246 -9.64356934 2.60510742 -9.51831055 1.81005859 C-9.34726807 1.21273926 -9.17622559 0.61541992 -9 0 C-5.93109813 -1.53445094 -3.29905734 -0.54984289 0 0 Z " fill="#0986CD" transform="translate(236,52)"/>
<path d="M0 0 C1.0725 -0.02578125 2.145 -0.0515625 3.25 -0.078125 C4.61125 0.08429688 4.61125 0.08429688 6 0.25 C9.85577028 6.03365542 7.96148196 13.63981152 7 20.25 C11.95 20.25 16.9 20.25 22 20.25 C21.90460938 19.05761719 21.80921875 17.86523438 21.7109375 16.63671875 C21.59838432 15.07035364 21.48643666 13.50394494 21.375 11.9375 C21.31054688 11.15181641 21.24609375 10.36613281 21.1796875 9.55664062 C21.10234375 8.4206543 21.10234375 8.4206543 21.0234375 7.26171875 C20.97106934 6.56522217 20.91870117 5.86872559 20.86474609 5.15112305 C21 3.25 21 3.25 23 0.25 C26.0390625 -0.04296875 26.0390625 -0.04296875 29.625 0.0625 C30.81351563 0.08957031 32.00203125 0.11664063 33.2265625 0.14453125 C34.14179688 0.17933594 35.05703125 0.21414062 36 0.25 C36 0.91 36 1.57 36 2.25 C32.04 2.25 28.08 2.25 24 2.25 C24.01160156 3.60996094 24.02320313 4.96992187 24.03515625 6.37109375 C24.04453262 8.1432278 24.05363298 9.91536333 24.0625 11.6875 C24.07087891 12.58533203 24.07925781 13.48316406 24.08789062 14.40820312 C24.09111328 15.26220703 24.09433594 16.11621094 24.09765625 16.99609375 C24.10289307 17.78685303 24.10812988 18.5776123 24.11352539 19.39233398 C24 21.25 24 21.25 23 22.25 C20.15664952 22.34986975 17.34302837 22.38877881 14.5 22.375 C13.30310547 22.38080078 13.30310547 22.38080078 12.08203125 22.38671875 C6.12660767 22.37660767 6.12660767 22.37660767 5 21.25 C4.91368126 19.90732587 4.89293527 18.56025678 4.90234375 17.21484375 C4.90556641 16.40595703 4.90878906 15.59707031 4.91210938 14.76367188 C4.92048828 13.91353516 4.92886719 13.06339844 4.9375 12.1875 C4.94201172 11.33349609 4.94652344 10.47949219 4.95117188 9.59960938 C4.96299627 7.48304337 4.98093231 5.36651315 5 3.25 C1.7 3.25 -1.6 3.25 -5 3.25 C-4.69024532 5.02131561 -4.37709575 6.79203778 -4.0625 8.5625 C-3.88847656 9.54863281 -3.71445313 10.53476563 -3.53515625 11.55078125 C-3.04253153 14.33189213 -3.04253153 14.33189213 -2 17.25 C-1.01 22.86 -0.02 28.47 1 34.25 C14.2 34.91 27.4 35.57 41 36.25 C41.99 33.28 42.98 30.31 44 27.25 C44.66 26.59 45.32 25.93 46 25.25 C46.67656701 23.5614252 47.29399973 21.8487942 47.875 20.125 C49.57879864 15.27425985 51.59613977 10.78501364 54 6.25 C54.66947417 4.91807412 55.33685677 3.58508924 56 2.25 C56.66 2.25 57.32 2.25 58 2.25 C57.37807715 6.49324581 55.89804172 9.76199657 53.9375 13.5625 C51.17523737 18.93505612 48.45067568 24.32477527 45.75390625 29.73046875 C45.39010864 30.45890991 45.02631104 31.18735107 44.65148926 31.93786621 C43.76731053 33.70840324 42.88360469 35.47917642 42 37.25 C36.05520371 37.32401579 30.11067407 37.37853813 24.16552734 37.41479492 C22.14204234 37.42990526 20.1185902 37.45039437 18.09521484 37.47631836 C15.19099835 37.51260328 12.28721385 37.52970355 9.3828125 37.54296875 C8.47443634 37.55845261 7.56606018 37.57393646 6.63015747 37.58988953 C5.36907669 37.59022942 5.36907669 37.59022942 4.08251953 37.59057617 C2.96999313 37.60056892 2.96999313 37.60056892 1.83499146 37.61076355 C1.22944427 37.49171158 0.62389709 37.37265961 0 37.25 C-2.24892838 33.87660744 -2.72639905 31.46403989 -3.5078125 27.5 C-3.63815887 26.84547852 -3.76850525 26.19095703 -3.90280151 25.51660156 C-4.1764954 24.13539115 -4.44694212 22.75353385 -4.71435547 21.37109375 C-5.12378353 19.25628342 -5.54343512 17.14370215 -5.96484375 15.03125 C-8 4.70949616 -8 4.70949616 -8 1.25 C-5.27976922 -0.11011539 -3.0338119 0.0437569 0 0 Z " fill="#2B8CC1" transform="translate(103,70.75)"/>
<path d="M0 0 C0.66 0 1.32 0 2 0 C2.50798327 1.93033643 3.01596266 3.86067389 3.52392578 5.79101562 C3.97145302 7.49155328 4.41904562 9.19207373 4.86669922 10.89257812 C6.02591914 15.29648131 7.18418225 19.70063033 8.33984375 24.10546875 C8.55398926 24.92088135 8.76813477 25.73629395 8.98876953 26.57641602 C9.41099653 28.18479951 9.83255229 29.79335937 10.25341797 31.40209961 C11.60336394 36.54735003 13.01532275 41.67076337 14.51953125 46.7734375 C15 49 15 49 15 54 C4.44 54 -6.12 54 -17 54 C-16.31337274 47.82035467 -15.86415435 43.84639121 -13.890625 38.3046875 C-13.46773193 37.10038086 -13.04483887 35.89607422 -12.60913086 34.65527344 C-12.15627086 33.39511629 -11.70322432 32.13502617 -11.25 30.875 C-10.79139789 29.57880431 -10.33380081 28.28225262 -9.87719727 26.98535156 C-8.98715478 24.45817811 -8.09362726 21.93235169 -7.19775391 19.40722656 C-5.32683558 14.08506264 -3.57727143 8.72623345 -1.83984375 3.359375 C-1 1 -1 1 0 0 Z M0 6 C-2.29676844 9.37223938 -3.51060109 12.34412319 -4.375 16.3125 C-5.58390811 21.4344528 -6.96283983 26.46892873 -8.5 31.5 C-8.70157715 32.18231689 -8.9031543 32.86463379 -9.11083984 33.56762695 C-9.97446457 36.35723887 -10.7046566 38.64674612 -12.59375 40.90625 C-14.79505986 43.83508152 -14.79505986 43.83508152 -15 52 C-6.42 52 2.16 52 11 52 C12.45314664 47.39467611 12.45314664 47.39467611 11 45 C9.34519918 39.74357385 9 35.49744033 9 30 C8.34 30 7.68 30 7 30 C6.96261719 29.38253906 6.92523438 28.76507813 6.88671875 28.12890625 C6.26719552 20.14798941 4.08304303 13.35187183 1 6 C0.67 6 0.34 6 0 6 Z " fill="#2F8ABE" transform="translate(67,39)"/>
<path d="M0 0 C-0.33 1.32 -0.66 2.64 -1 4 C1.31 4 3.62 4 6 4 C6.38218767 5.65614657 6.71395102 7.32457024 7 9 C6 10 6 10 4.15234375 10.09765625 C2.1015625 10.06510417 0.05078125 10.03255208 -2 10 C-1.67 10.99 -1.34 11.98 -1 13 C-0.34 12.34 0.32 11.68 1 11 C3.625 11.375 3.625 11.375 6 12 C5.65198447 14.57531492 5.29035995 16.54832896 3.875 18.75 C0.96367732 20.69088179 -1.54312497 20.87870614 -5 21 C-7.4375 20.125 -7.4375 20.125 -9 18 C-9.93421888 12.17000118 -8.78363457 6.54908534 -7 1 C-4.53721199 -0.231394 -2.7204945 -0.07159196 0 0 Z " fill="#0884CC" transform="translate(218,54)"/>
<path d="M0 0 C-0.33 0.66 -0.66 1.32 -1 2 C-1.23274209 4.87910588 -1.41972757 7.74146495 -1.5625 10.625 C-1.60568359 11.42679688 -1.64886719 12.22859375 -1.69335938 13.0546875 C-1.79951457 15.0362511 -1.90026855 17.01810271 -2 19 C-3.32 19 -4.64 19 -6 19 C-6.33 18.01 -6.66 17.02 -7 16 C-8.98 16 -10.96 16 -13 16 C-13.33 16.99 -13.66 17.98 -14 19 C-14.99 18.67 -15.98 18.34 -17 18 C-15.02 12.06 -13.04 6.12 -11 0 C-2 -1 -2 -1 0 0 Z M-8 6 C-8.33 7.65 -8.66 9.3 -9 11 C-8.34 10.34 -7.68 9.68 -7 9 C-7.33 8.01 -7.66 7.02 -8 6 Z " fill="#0982CF" transform="translate(191,53)"/>
<path d="M0 0 C3.3 0 6.6 0 10 0 C11.77569618 3.55139236 11.34581668 7.44382492 10.5 11.25 C8.71486558 13.33265683 7.51657319 13.60241548 4.9375 14.4375 C2.80533112 15.07765214 2.80533112 15.07765214 1 16 C-0.13440778 18.57080135 -0.13440778 18.57080135 0 21 C-0.99 21 -1.98 21 -3 21 C-2.53752467 13.80729161 -1.74922933 6.9969173 0 0 Z M5 5 C4.67 6.32 4.34 7.64 4 9 C4.66 9 5.32 9 6 9 C5.67 7.68 5.34 6.36 5 5 Z " fill="#0684CC" transform="translate(195,59)"/>
<path d="M0 0 C0.66 0 1.32 0 2 0 C2 6.93 2 13.86 2 21 C0.35 20.67 -1.3 20.34 -3 20 C-3.33 19.34 -3.66 18.68 -4 18 C-3.67 17.34 -3.34 16.68 -3 16 C-3.66 16 -4.32 16 -5 16 C-4.67 14.68 -4.34 13.36 -4 12 C-4.66 12 -5.32 12 -6 12 C-6.66 13.98 -7.32 15.96 -8 18 C-7.01 18 -6.02 18 -5 18 C-5 18.66 -5 19.32 -5 20 C-6.98 20.33 -8.96 20.66 -11 21 C-12.22975728 18.54048544 -12.01468511 17.21743376 -11.75 14.5 C-11.68296875 13.7059375 -11.6159375 12.911875 -11.546875 12.09375 C-11 10 -11 10 -8 8 C-6.0103005 7.60986284 -4.00980131 7.26797351 -2 7 C-1.34 4.69 -0.68 2.38 0 0 Z " fill="#0985CE" transform="translate(279,52)"/>
<path d="M0 0 C1.65 0 3.3 0 5 0 C4.67 1.32 4.34 2.64 4 4 C6.31 4 8.62 4 11 4 C11.38218767 5.65614657 11.71395102 7.32457024 12 9 C11 10 11 10 9.15234375 10.09765625 C7.1015625 10.06510417 5.05078125 10.03255208 3 10 C3.33 10.99 3.66 11.98 4 13 C4.66 12.34 5.32 11.68 6 11 C8.625 11.375 8.625 11.375 11 12 C10.25 16.75 10.25 16.75 8 19 C8 17.35 8 15.7 8 14 C7.01 14.66 6.02 15.32 5 16 C3.68 16 2.36 16 1 16 C0.875 12.625 0.875 12.625 1 9 C1.66 8.34 2.32 7.68 3 7 C2.01 4.69 1.02 2.38 0 0 Z " fill="#108CD4" transform="translate(213,54)"/>
<path d="M0 0 C6.76249187 -0.12673206 13.52467783 -0.21432235 20.28808594 -0.2746582 C22.5889836 -0.29980906 24.88980132 -0.33393396 27.19042969 -0.37719727 C30.49694533 -0.43782147 33.80240521 -0.46620441 37.109375 -0.48828125 C38.13867126 -0.51408768 39.16796753 -0.5398941 40.22845459 -0.56648254 C47.39692044 -0.56930051 47.39692044 -0.56930051 50.68066406 2.53051758 C51.11604492 3.34544678 51.55142578 4.16037598 52 5 C51.67 5.66 51.34 6.32 51 7 C49 6 49 6 48 3 C32.16 2.67 16.32 2.34 0 2 C0 1.34 0 0.68 0 0 Z " fill="#2180BE" transform="translate(95,20)"/>
<path d="M0 0 C3.0390625 -0.29296875 3.0390625 -0.29296875 6.625 -0.1875 C7.81351563 -0.16042969 9.00203125 -0.13335937 10.2265625 -0.10546875 C11.14179688 -0.07066406 12.05703125 -0.03585938 13 0 C13 0.66 13 1.32 13 2 C9.04 2 5.08 2 1 2 C1.01160156 3.35996094 1.02320312 4.71992187 1.03515625 6.12109375 C1.04453262 7.8932278 1.05363298 9.66536333 1.0625 11.4375 C1.07087891 12.33533203 1.07925781 13.23316406 1.08789062 14.15820312 C1.09272461 15.43920898 1.09272461 15.43920898 1.09765625 16.74609375 C1.10551147 17.93223267 1.10551147 17.93223267 1.11352539 19.14233398 C1 21 1 21 0 22 C-2.86267567 22.07325168 -5.700719 22.09238205 -8.5625 22.0625 C-9.36880859 22.05798828 -10.17511719 22.05347656 -11.00585938 22.04882812 C-13.00393756 22.03700518 -15.00197783 22.01906914 -17 22 C-17 18.37 -17 14.74 -17 11 C-16.67 11 -16.34 11 -16 11 C-16 13.97 -16 16.94 -16 20 C-11.05 20 -6.1 20 -1 20 C-1.09539062 18.80761719 -1.19078125 17.61523438 -1.2890625 16.38671875 C-1.40161568 14.82035364 -1.51356334 13.25394494 -1.625 11.6875 C-1.68945312 10.90181641 -1.75390625 10.11613281 -1.8203125 9.30664062 C-1.871875 8.54931641 -1.9234375 7.79199219 -1.9765625 7.01171875 C-2.02893066 6.31522217 -2.08129883 5.61872559 -2.13525391 4.90112305 C-2 3 -2 3 0 0 Z " fill="#2588BF" transform="translate(126,71)"/>
<path d="M0 0 C5.28 0 10.56 0 16 0 C16 6.27 16 12.54 16 19 C21.28 19 26.56 19 32 19 C32.125 31.75 32.125 31.75 31 34 C30.34 33.67 29.68 33.34 29 33 C29.66 28.71 30.32 24.42 31 20 C25.39 20 19.78 20 14 20 C14 14.06 14 8.12 14 2 C9.05 2 4.1 2 -1 2 C-0.67 1.34 -0.34 0.68 0 0 Z " fill="#3789B6" transform="translate(111,39)"/>
<path d="M0 0 C0.33 0 0.66 0 1 0 C1 5.61 1 11.22 1 17 C-0.32 17 -1.64 17 -3 17 C-3.33 16.01 -3.66 15.02 -4 14 C-5.98 14 -7.96 14 -10 14 C-10.33 14.99 -10.66 15.98 -11 17 C-11.99 16.67 -12.98 16.34 -14 16 C-12.68 11.71 -11.36 7.42 -10 3 C-8 6 -8 6 -8 10 C-6.35 10 -4.7 10 -3 10 C-1.11608215 6.73454239 -0.50712033 3.71888239 0 0 Z " fill="#0485CC" transform="translate(188,55)"/>
<path d="M0 0 C1.32 0.33 2.64 0.66 4 1 C3.34 1 2.68 1 2 1 C2.2831556 3.08450717 2.57685669 5.16758367 2.875 7.25 C3.03742188 8.41015625 3.19984375 9.5703125 3.3671875 10.765625 C3.92734203 13.62863705 4.70358449 15.45074597 6 18 C6 19.32 6 20.64 6 22 C6.66 22 7.32 22 8 22 C8.33 26.95 8.66 31.9 9 37 C13.95 37 18.9 37 24 37 C24 37.33 24 37.66 24 38 C18.72 38 13.44 38 8 38 C6.3814994 33.95374851 5.36629986 30.52976712 4.4921875 26.30859375 C4.22792969 25.03435547 3.96367188 23.76011719 3.69140625 22.44726562 C3.55750488 21.78895752 3.42360352 21.13064941 3.28564453 20.45239258 C2.87528001 18.43887393 2.4557429 16.42742098 2.03515625 14.41601562 C0 4.51593288 0 4.51593288 0 0 Z " fill="#2E8ABB" transform="translate(86,21)"/>
<path d="M0 0 C0.33 0.66 0.66 1.32 1 2 C0.07767578 2.03867187 0.07767578 2.03867187 -0.86328125 2.078125 C-5.79805885 2.34486786 -5.79805885 2.34486786 -10.0625 4.5625 C-11.44027661 8.1447192 -11.19130045 11.17399094 -11 15 C-6.545 14.505 -6.545 14.505 -2 14 C-2 12.02 -2 10.04 -2 8 C-0.35 8 1.3 8 3 8 C3 9.98 3 11.96 3 14 C2.01 14 1.02 14 0 14 C-0.7425 14.515625 -1.485 15.03125 -2.25 15.5625 C-5.91200448 17.47672962 -8.05326772 16.96806641 -12 16 C-14 14 -14 14 -14.1171875 11.7578125 C-13.75881019 7.86190436 -13.45927665 4.80373414 -11.5 1.375 C-7.7459367 -0.68973482 -4.19180622 -0.32244663 0 0 Z " fill="#2E8BBF" transform="translate(263,58)"/>
<path d="M0 0 C3.375 0.4375 3.375 0.4375 5.375 2.4375 C5.375 3.4275 5.375 4.4175 5.375 5.4375 C2.405 4.9425 2.405 4.9425 -0.625 4.4375 C-0.625 3.7775 -0.625 3.1175 -0.625 2.4375 C-2.2083253 3.6863427 -2.2083253 3.6863427 -3.625 5.4375 C-3.625 6.7575 -3.625 8.0775 -3.625 9.4375 C0.00385324 9.58899298 0.00385324 9.58899298 3.375 8.4375 C3.045 9.7575 2.715 11.0775 2.375 12.4375 C-2.08 12.9325 -2.08 12.9325 -6.625 13.4375 C-8.05162219 10.58425563 -7.93533868 8.60295451 -7.625 5.4375 C-5.46628682 1.46546775 -4.54701848 0.54877809 0 0 Z " fill="#0584CE" transform="translate(258.625,59.5625)"/>
<path d="M0 0 C3.63220772 3.92980457 5.07466827 7.69209986 6.25 12.8125 C6.42273438 13.48603516 6.59546875 14.15957031 6.7734375 14.85351562 C7.98750972 19.88806114 8 23.48089151 8 29 C1.07 29 -5.86 29 -13 29 C-13 28.67 -13 28.34 -13 28 C-7.06 27.67 -1.12 27.34 5 27 C5.33 25.68 5.66 24.36 6 23 C5.34 22.67 4.68 22.34 4 22 C3.66073053 19.66752239 3.32759934 17.33414529 3 15 C2.34 14.34 1.68 13.68 1 13 C1.66 10.69 2.32 8.38 3 6 C2.34 6 1.68 6 1 6 C0.67 4.02 0.34 2.04 0 0 Z " fill="#228BC4" transform="translate(73,63)"/>
<path d="M0 0 C1.4540625 0.0309375 1.4540625 0.0309375 2.9375 0.0625 C4.25946493 2.70642986 3.73289354 3.97052036 3.16015625 6.8515625 C2.88461914 8.26308594 2.88461914 8.26308594 2.60351562 9.703125 C2.40435547 10.68796875 2.20519531 11.6728125 2 12.6875 C1.80470703 13.68007812 1.60941406 14.67265625 1.40820312 15.6953125 C0.92389691 18.15228064 0.43342303 20.60785485 -0.0625 23.0625 C-2.3725 23.0625 -4.6825 23.0625 -7.0625 23.0625 C-7.0625 21.4125 -7.0625 19.7625 -7.0625 18.0625 C-6.4025 18.0625 -5.7425 18.0625 -5.0625 18.0625 C-5.0625 19.0525 -5.0625 20.0425 -5.0625 21.0625 C-4.0725 21.0625 -3.0825 21.0625 -2.0625 21.0625 C-1.72658104 18.79204771 -1.39384935 16.52112367 -1.0625 14.25 C-0.876875 12.98542969 -0.69125 11.72085938 -0.5 10.41796875 C0.00214492 7.13067492 0.00214492 7.13067492 -0.0625 4.0625 C-2.0425 4.3925 -4.0225 4.7225 -6.0625 5.0625 C-3.64893617 0.07446809 -3.64893617 0.07446809 0 0 Z " fill="#2F8BC0" transform="translate(247.0625,50.9375)"/>
<path d="M0 0 C0.12375 1.134375 0.2475 2.26875 0.375 3.4375 C0.58125 4.613125 0.7875 5.78875 1 7 C1.66 7.33 2.32 7.66 3 8 C2.01 8 1.02 8 0 8 C-0.33 5.69 -0.66 3.38 -1 1 C-3.31 1 -5.62 1 -8 1 C-7.97679687 1.85722656 -7.95359375 2.71445312 -7.9296875 3.59765625 C-7.83173355 9.80373869 -7.82590593 15.1571222 -10 21 C-8.35 21 -6.7 21 -5 21 C-5 21.33 -5 21.66 -5 22 C-6.98 22 -8.96 22 -11 22 C-12.46151756 17.61544731 -11.41814436 13.87127301 -10.6875 9.375 C-10.55666016 8.49070312 -10.42582031 7.60640625 -10.29101562 6.6953125 C-10.15759766 5.85484375 -10.02417969 5.014375 -9.88671875 4.1484375 C-9.76514404 3.37677246 -9.64356934 2.60510742 -9.51831055 1.81005859 C-9.34726807 1.21273926 -9.17622559 0.61541992 -9 0 C-5.93109813 -1.53445094 -3.29905734 -0.54984289 0 0 Z " fill="#3389BB" transform="translate(236,52)"/>
<path d="M0 0 C1.32 0.33 2.64 0.66 4 1 C4.33 2.98 4.66 4.96 5 7 C5.763125 6.21625 6.52625 5.4325 7.3125 4.625 C10 2 10 2 13 0 C13 1.98 13 3.96 13 6 C9.87703962 7.85064319 7.62059232 8.29356154 4 8 C3.67 7.67 3.34 7.34 3 7 C2.34 8.65 1.68 10.3 1 12 C-0.65 12 -2.3 12 -4 12 C-2.68 11.67 -1.36 11.34 0 11 C0 7.37 0 3.74 0 0 Z " fill="#208FCE" transform="translate(230,61)"/>
<path d="M0 0 C0.66 0.33 1.32 0.66 2 1 C2.02684312 3.81256281 2.04676188 6.62487241 2.0625 9.4375 C2.07087891 10.23994141 2.07925781 11.04238281 2.08789062 11.86914062 C2.0965143 13.91295221 2.0522815 15.95683902 2 18 C1 19 1 19 -2.37890625 19.09765625 C-3.77347077 19.09098369 -5.16801743 19.07902532 -6.5625 19.0625 C-7.27341797 19.05798828 -7.98433594 19.05347656 -8.71679688 19.04882812 C-10.47790013 19.03700864 -12.23896036 19.01907263 -14 19 C-14 18.67 -14 18.34 -14 18 C-9.71 18 -5.42 18 -1 18 C-1.185625 17.05125 -1.37125 16.1025 -1.5625 15.125 C-2.2516571 10.38825825 -1.81076749 5.70245142 -1 1 C-0.67 0.67 -0.34 0.34 0 0 Z " fill="#167CC6" transform="translate(109,39)"/>
<path d="M0 0 C3.3 0 6.6 0 10 0 C8.64615385 8.49230769 8.64615385 8.49230769 5.375 11.0625 C4.59125 11.371875 3.8075 11.68125 3 12 C2.375 8.625 2.375 8.625 2 5 C2.66 4.34 3.32 3.68 4 3 C4.99 3 5.98 3 7 3 C4.69 2.34 2.38 1.68 0 1 C0 0.67 0 0.34 0 0 Z M5 5 C4.67 6.32 4.34 7.64 4 9 C4.66 9 5.32 9 6 9 C5.67 7.68 5.34 6.36 5 5 Z " fill="#158ED5" transform="translate(195,59)"/>
<path d="M0 0 C0.33 0.99 0.66 1.98 1 3 C2.32 3 3.64 3 5 3 C5.33 4.32 5.66 5.64 6 7 C7.32 7.33 8.64 7.66 10 8 C10 6.35 10 4.7 10 3 C10.66 3.33 11.32 3.66 12 4 C11.67 5.65 11.34 7.3 11 9 C7.71303767 9.79953138 6.28976808 10.09658936 3 9 C2.175 9.20625 1.35 9.4125 0.5 9.625 C-0.325 9.74875 -1.15 9.8725 -2 10 C-3.8125 8.5625 -3.8125 8.5625 -5 7 C-2.36 7 0.28 7 3 7 C3 6.34 3 5.68 3 5 C2.01 5 1.02 5 0 5 C0 3.35 0 1.7 0 0 Z " fill="#2E8DC0" transform="translate(271,65)"/>
<path d="M0 0 C0.66 0 1.32 0 2 0 C1.34 5.61 0.68 11.22 0 17 C2.97 17.33 5.94 17.66 9 18 C6 20 6 20 2.9375 19.75 C0 19 0 19 -2 17 C-2.83002176 11.11661046 -1.63697206 5.62709144 0 0 Z " fill="#2B8EC6" transform="translate(211,55)"/>
<path d="M0 0 C5.28 0 10.56 0 16 0 C16 5.61 16 11.22 16 17 C15.67 17 15.34 17 15 17 C14.67 12.38 14.34 7.76 14 3 C9.05 2.67 4.1 2.34 -1 2 C-0.67 1.34 -0.34 0.68 0 0 Z " fill="#3092C7" transform="translate(111,39)"/>
<path d="M0 0 C3.0390625 -0.29296875 3.0390625 -0.29296875 6.625 -0.1875 C7.81351563 -0.16042969 9.00203125 -0.13335937 10.2265625 -0.10546875 C11.14179688 -0.07066406 12.05703125 -0.03585938 13 0 C13 0.66 13 1.32 13 2 C9.04 2 5.08 2 1 2 C0.67 7.94 0.34 13.88 0 20 C-0.33 20 -0.66 20 -1 20 C-1.22162857 17.22964291 -1.42779249 14.45961005 -1.625 11.6875 C-1.68945312 10.90181641 -1.75390625 10.11613281 -1.8203125 9.30664062 C-1.871875 8.54931641 -1.9234375 7.79199219 -1.9765625 7.01171875 C-2.02893066 6.31522217 -2.08129883 5.61872559 -2.13525391 4.90112305 C-2 3 -2 3 0 0 Z " fill="#398BB9" transform="translate(126,71)"/>
<path d="M0 0 C1.98 0 3.96 0 6 0 C6.20190089 6.35987804 5.6277833 11.85221129 4 18 C3.67 18 3.34 18 3 18 C2.88861841 12.54230189 3.08342019 7.38490641 4 2 C3.01 2.33 2.02 2.66 1 3 C0.67 4.65 0.34 6.3 0 8 C-0.33 8 -0.66 8 -1 8 C-1.125 2.25 -1.125 2.25 0 0 Z " fill="#358DBC" transform="translate(277,50)"/>
<path d="M0 0 C2.96430761 3.55716913 4.7721925 7.45050932 6.6875 11.625 C7.00783203 12.305625 7.32816406 12.98625 7.65820312 13.6875 C10 18.74058835 10 18.74058835 10 21 C9.34 21 8.68 21 8 21 C4.89496868 17.89496868 3.95256232 14.12679387 2.74609375 10.0234375 C2.09107284 7.81186317 2.09107284 7.81186317 0 6 C-0.125 2.875 -0.125 2.875 0 0 Z " fill="#2991C7" transform="translate(147,28)"/>
<path d="M0 0 C1.32 0.33 2.64 0.66 4 1 C4 3.64 4 6.28 4 9 C0.25 10.125 0.25 10.125 -2 9 C-1.125 2.25 -1.125 2.25 0 0 Z M1 3 C0.67 4.65 0.34 6.3 0 8 C0.66 7.34 1.32 6.68 2 6 C1.67 5.01 1.34 4.02 1 3 Z " fill="#1C91CF" transform="translate(182,56)"/>
<path d="M0 0 C3.26454657 4.04181956 6.08911634 7.77209162 5.875 13.125 C4.99544583 16.01496371 3.98784319 17.75287291 2 20 C2.226875 18.824375 2.45375 17.64875 2.6875 16.4375 C3.27902827 11.9131081 1.94221609 9.11749811 0 5 C-0.1875 2.0625 -0.1875 2.0625 0 0 Z " fill="#2D86B5" transform="translate(159,53)"/>
<path d="M0 0 C1.65 0 3.3 0 5 0 C4.67 1.32 4.34 2.64 4 4 C6.31 4 8.62 4 11 4 C11.38218767 5.65614657 11.71395102 7.32457024 12 9 C11 10 11 10 9.15234375 10.09765625 C7.1015625 10.06510417 5.05078125 10.03255208 3 10 C3 9.67 3 9.34 3 9 C4.98 8.67 6.96 8.34 9 8 C9.33 7.01 9.66 6.02 10 5 C7.36 5 4.72 5 2 5 C1.34 3.35 0.68 1.7 0 0 Z " fill="#358EC1" transform="translate(213,54)"/>
<path d="M0 0 C0.66 0.33 1.32 0.66 2 1 C1.34 3.31 0.68 5.62 0 8 C-1.98 8 -3.96 8 -6 8 C-6 5.69 -6 3.38 -6 1 C-5.01 1.495 -5.01 1.495 -4 2 C-4 3.32 -4 4.64 -4 6 C-3.01 6 -2.02 6 -1 6 C-1.020625 5.195625 -1.04125 4.39125 -1.0625 3.5625 C-1 1 -1 1 0 0 Z " fill="#368FBF" transform="translate(196,74)"/>
<path d="M0 0 C0.33 0 0.66 0 1 0 C0.67 2.31 0.34 4.62 0 7 C-1.26607607 7.53229326 -2.53810412 8.05044544 -3.8125 8.5625 C-4.52019531 8.85253906 -5.22789062 9.14257812 -5.95703125 9.44140625 C-8 10 -8 10 -11 9 C-9.9375 7.5 -9.9375 7.5 -8 6 C-4.3125 5.8125 -4.3125 5.8125 -1 6 C-1.020625 5.195625 -1.04125 4.39125 -1.0625 3.5625 C-1 1 -1 1 0 0 Z " fill="#258FC7" transform="translate(278,52)"/>
<path d="M0 0 C0.99 0.33 1.98 0.66 3 1 C2.67 4.3 2.34 7.6 2 11 C0.68 10.67 -0.64 10.34 -2 10 C-1.34 6.7 -0.68 3.4 0 0 Z " fill="#0383CA" transform="translate(228,61)"/>
<path d="M0 0 C1.65 0 3.3 0 5 0 C5 1.98 5 3.96 5 6 C4.01 6 3.02 6 2 6 C0.32900023 6.31088368 -1.33871537 6.64080332 -3 7 C-2.01 6.67 -1.02 6.34 0 6 C0 4.02 0 2.04 0 0 Z " fill="#2F92C8" transform="translate(261,66)"/>
<path d="M0 0 C2.625 0.375 2.625 0.375 5 1 C4.25 5.75 4.25 5.75 2 8 C2 6.35 2 4.7 2 3 C0.68 2.67 -0.64 2.34 -2 2 C-1.34 1.34 -0.68 0.68 0 0 Z " fill="#368CBD" transform="translate(219,65)"/>
<path d="M0 0 C0.99 0.33 1.98 0.66 3 1 C2.67 1.99 2.34 2.98 2 4 C2.66 4 3.32 4 4 4 C4 2.68 4 1.36 4 0 C4.66 0 5.32 0 6 0 C5.75 2.375 5.75 2.375 5 5 C2.9375 6.3125 2.9375 6.3125 1 7 C0.67 4.69 0.34 2.38 0 0 Z " fill="#2891C9" transform="translate(197,64)"/>
<path d="M0 0 C2.50356732 3.75535098 1.9608592 4.86889414 1.125 9.1875 C0.92132813 10.27417969 0.71765625 11.36085938 0.5078125 12.48046875 C0.34023437 13.31191406 0.17265625 14.14335938 0 15 C-0.33 15 -0.66 15 -1 15 C-1.02685412 12.68756208 -1.04632841 10.3750373 -1.0625 8.0625 C-1.07410156 6.77472656 -1.08570312 5.48695312 -1.09765625 4.16015625 C-1 1 -1 1 0 0 Z " fill="#149BD4" transform="translate(109,77)"/>
<path d="M0 0 C0 0.66 0 1.32 0 2 C-3.08809695 3.76462683 -4.23312136 4 -8 4 C-7.67 3.01 -7.34 2.02 -7 1 C-4 0 -4 0 0 0 Z " fill="#208BC5" transform="translate(249,52)"/>
<path d="M0 0 C2.64465038 3.1254959 3.84414715 6.08788267 5 10 C4.34 10 3.68 10 3 10 C0.52653696 7.52653696 0.01686856 6.29238832 -0.1875 2.75 C-0.125625 1.8425 -0.06375 0.935 0 0 Z " fill="#2888BF" transform="translate(152,39)"/>
<path d="M0 0 C0.66 0 1.32 0 2 0 C4.42857143 6.28571429 4.42857143 6.28571429 3 10 C2.34 8.35 1.68 6.7 1 5 C0.34 5 -0.32 5 -1 5 C-0.67 3.35 -0.34 1.7 0 0 Z " fill="#3F8CBD" transform="translate(67,39)"/>
<path d="M0 0 C0.66 0 1.32 0 2 0 C1.34 2.97 0.68 5.94 0 9 C-0.99 8.34 -1.98 7.68 -3 7 C-2.34 7 -1.68 7 -1 7 C-1.020625 6.030625 -1.04125 5.06125 -1.0625 4.0625 C-1 1 -1 1 0 0 Z " fill="#1C8BC5" transform="translate(193,62)"/>
<path d="M0 0 C0.66 0.33 1.32 0.66 2 1 C2 2.98 2 4.96 2 7 C1.01 7 0.02 7 -1 7 C-0.67 4.69 -0.34 2.38 0 0 Z " fill="#0482C7" transform="translate(193,73)"/>
<path d="M0 0 C2 3 2 3 2 6 C0.68 5.67 -0.64 5.34 -2 5 C-2 2 -2 2 0 0 Z " fill="#0583CB" transform="translate(278,67)"/>
<path d="M0 0 C0.66 0 1.32 0 2 0 C2 1.32 2 2.64 2 4 C2.99 4.33 3.98 4.66 5 5 C3.35 5.33 1.7 5.66 0 6 C0 4.02 0 2.04 0 0 Z " fill="#2492CF" transform="translate(214,64)"/>
<path d="M0 0 C0.66 0.33 1.32 0.66 2 1 C1.25 7.75 1.25 7.75 -1 10 C-0.67 6.7 -0.34 3.4 0 0 Z " fill="#278CC5" transform="translate(162,63)"/>
</svg>
